Rokkitt.ufo
<glyph name="exclam" format="1">
  <advance width="466"/>
  <unicode hex="0021"/>
  <outline>
    <contour>
      <point x="127" y="212" type="line" smooth="no"/>
      <point x="339" y="212" type="line" smooth="no"/>
      <point x="339" y="0" type="line" smooth="no"/>
      <point x="127" y="0" type="line" smooth="no"/>
    </contour>
    <contour>
      <point x="147" y="821" type="line" smooth="no"/>
      <point x="147" y="1171" type="line" smooth="no"/>
      <point x="319" y="1171" type="line" smooth="no"/>
      <point x="319" y="821" type="line" smooth="no"/>
      <point x="277" y="324" type="line" smooth="no"/>
      <point x="189" y="324" type="line" smooth="no"/>
    </contour>
  </outline>
</glyph>
<glyph name="quotedbl" format="1">
  <advance width="665"/>
  <unicode hex="0022"/>
  <outline>
    <contour>
      <point x="234" y="756" type="line" smooth="no"/>
      <point x="104" y="756" type="line" smooth="no"/>
      <point x="59" y="1171" type="line" smooth="no"/>
      <point x="276" y="1171" type="line" smooth="no"/>
    </contour>
    <contour>
      <point x="557" y="756" type="line" smooth="no"/>
      <point x="427" y="756" type="line" smooth="no"/>
      <point x="382" y="1171" type="line" smooth="no"/>
      <point x="599" y="1171" type="line" smooth="no"/>
    </contour>
  </outline>
</glyph>
<glyph name="dollar" format="1">
  <advance width="940"/>
  <unicode hex="0024"/>
  <outline>
    <contour>
      <point x="411" y="1030" type="line" smooth="no"/>
      <point x="322" y="1016"/>
      <point x="244" y="966"/>
      <point x="244" y="878" type="curve" smooth="yes"/>
      <point x="244" y="760"/>
      <point x="314" y="724"/>
      <point x="411" y="695" type="curve" smooth="no"/>
    </contour>
    <contour>
      <point x="542" y="117" type="line" smooth="no"/>
      <point x="655" y="124"/>
      <point x="746" y="188"/>
      <point x="746" y="306" type="curve" smooth="yes"/>
      <point x="746" y="425"/>
      <point x="655" y="467"/>
      <point x="542" y="499" type="curve" smooth="no"/>
    </contour>
    <contour>
      <point x="88" y="854" type="curve" smooth="yes"/>
      <point x="88" y="1050"/>
      <point x="226" y="1156"/>
      <point x="411" y="1169" type="curve" smooth="no"/>
      <point x="411" y="1305" type="line" smooth="no"/>
      <point x="542" y="1305" type="line" smooth="no"/>
      <point x="542" y="1161" type="line" smooth="no"/>
      <point x="605" y="1146"/>
      <point x="662" y="1118"/>
      <point x="713" y="1079" type="curve" smooth="no"/>
      <point x="713" y="1153" type="line" smooth="no"/>
      <point x="848" y="1153" type="line" smooth="no"/>
      <point x="848" y="826" type="line" smooth="no"/>
      <point x="713" y="826" type="line" smooth="no"/>
      <point x="713" y="908" type="line" smooth="no"/>
      <point x="665" y="974"/>
      <point x="608" y="1014"/>
      <point x="542" y="1027" type="curve" smooth="no"/>
      <point x="542" y="662" type="line" smooth="no"/>
      <point x="787" y="610"/>
      <point x="910" y="491"/>
      <point x="910" y="306" type="curve" smooth="yes"/>
      <point x="910" y="110"/>
      <point x="741" y="-12"/>
      <point x="542" y="-17" type="curve" smooth="no"/>
      <point x="542" y="-143" type="line" smooth="no"/>
      <point x="411" y="-143" type="line" smooth="no"/>
      <point x="411" y="-4" type="line" smooth="no"/>
      <point x="345" y="11"/>
      <point x="285" y="41"/>
      <point x="231" y="87" type="curve" smooth="no"/>
      <point x="231" y="0" type="line" smooth="no"/>
      <point x="96" y="0" type="line" smooth="no"/>
      <point x="96" y="387" type="line" smooth="no"/>
      <point x="231" y="387" type="line" smooth="no"/>
      <point x="231" y="271" type="line" smooth="no"/>
      <point x="282" y="201"/>
      <point x="342" y="155"/>
      <point x="411" y="133" type="curve" smooth="no"/>
      <point x="411" y="532" type="line" smooth="no"/>
      <point x="224" y="574"/>
      <point x="88" y="650"/>
    </contour>
  </outline>
</glyph>
<glyph name="quotesingle" format="1">
  <advance width="337"/>
  <unicode hex="0027"/>
  <outline>
    <contour>
      <point x="242" y="756" type="line" smooth="no"/>
      <point x="112" y="756" type="line" smooth="no"/>
      <point x="67" y="1171" type="line" smooth="no"/>
      <point x="284" y="1171" type="line" smooth="no"/>
    </contour>
  </outline>
</glyph>
<glyph name="asterisk" format="1">
  <advance width="916"/>
  <unicode hex="002a"/>
  <outline>
    <contour>
      <point x="282" y="351" type="line" smooth="no"/>
      <point x="141" y="450" type="line" smooth="no"/>
      <point x="237" y="582" type="line" smooth="no"/>
      <point x="411" y="729" type="line" smooth="no"/>
      <point x="183" y="743" type="line" smooth="no"/>
      <point x="32" y="797" type="line" smooth="no"/>
      <point x="82" y="960" type="line" smooth="no"/>
      <point x="237" y="909" type="line" smooth="no"/>
      <point x="437" y="783" type="line" smooth="no"/>
      <point x="379" y="1013" type="line" smooth="no"/>
      <point x="379" y="1171" type="line" smooth="no"/>
      <point x="548" y="1171" type="line" smooth="no"/>
      <point x="548" y="1013" type="line" smooth="no"/>
      <point x="488" y="783" type="line" smooth="no"/>
      <point x="688" y="909" type="line" smooth="no"/>
      <point x="844" y="960" type="line" smooth="no"/>
      <point x="894" y="797" type="line" smooth="no"/>
      <point x="744" y="743" type="line" smooth="no"/>
      <point x="515" y="729" type="line" smooth="no"/>
      <point x="688" y="582" type="line" smooth="no"/>
      <point x="783" y="450" type="line" smooth="no"/>
      <point x="644" y="351" type="line" smooth="no"/>
      <point x="548" y="483" type="line" smooth="no"/>
      <point x="463" y="698" type="line" smooth="no"/>
      <point x="379" y="483" type="line" smooth="no"/>
    </contour>
  </outline>
</glyph>
<glyph name="hyphen" format="1">
  <advance width="719"/>
  <unicode hex="002d"/>
  <outline>
    <contour>
      <point x="101" y="484" type="line" smooth="no"/>
      <point x="618" y="484" type="line" smooth="no"/>
      <point x="618" y="340" type="line" smooth="no"/>
      <point x="101" y="340" type="line" smooth="no"/>
    </contour>
  </outline>
</glyph>
<glyph name="period" format="1">
  <advance width="414"/>
  <unicode hex="002e"/>
  <outline>
    <contour>
      <point x="313" y="211" type="line" smooth="no"/>
      <point x="313" y="0" type="line" smooth="no"/>
      <point x="86" y="0" type="line" smooth="no"/>
      <point x="86" y="211" type="line" smooth="no"/>
    </contour>
  </outline>
</glyph>
<glyph name="one" format="1">
  <advance width="584"/>
  <unicode hex="0031"/>
  <outline>
    <contour>
      <point x="534" y="116" type="line" smooth="no"/>
      <point x="534" y="0" type="line" smooth="no"/>
      <point x="65" y="0" type="line" smooth="no"/>
      <point x="65" y="116" type="line" smooth="no"/>
      <point x="231" y="116" type="line" smooth="no"/>
      <point x="231" y="1037" type="line" smooth="no"/>
      <point x="57" y="1037" type="line" smooth="no"/>
      <point x="57" y="1153" type="line" smooth="no"/>
      <point x="380" y="1153" type="line" smooth="no"/>
      <point x="380" y="116" type="line" smooth="no"/>
    </contour>
  </outline>
</glyph>
<glyph name="two" format="1">
  <advance width="936"/>
  <unicode hex="0032"/>
  <outline>
    <contour>
      <point x="666" y="860" type="curve" smooth="yes"/>
      <point x="666" y="982"/>
      <point x="581" y="1038"/>
      <point x="447" y="1038" type="curve" smooth="yes"/>
      <point x="281" y="1038"/>
      <point x="239" y="930"/>
      <point x="239" y="750" type="curve" smooth="yes"/>
      <point x="239" y="744" type="line" smooth="no"/>
      <point x="95" y="744" type="line" smooth="no"/>
      <point x="95" y="1019"/>
      <point x="196" y="1171"/>
      <point x="462" y="1171" type="curve" smooth="yes"/>
      <point x="670" y="1171"/>
      <point x="832" y="1060"/>
      <point x="832" y="858" type="curve" smooth="yes"/>
      <point x="832" y="504"/>
      <point x="289" y="423"/>
      <point x="228" y="116" type="curve" smooth="no"/>
      <point x="700" y="116" type="line" smooth="no"/>
      <point x="700" y="378" type="line" smooth="no"/>
      <point x="827" y="378" type="line" smooth="no"/>
      <point x="827" y="0" type="line" smooth="no"/>
      <point x="62" y="0" type="line" smooth="no"/>
      <point x="62" y="172"/>
      <point x="133" y="319"/>
      <point x="274" y="442" type="curve" smooth="yes"/>
      <point x="401" y="552"/>
      <point x="666" y="676"/>
    </contour>
  </outline>
</glyph>
<glyph name="nine" format="1">
  <advance width="949"/>
  <unicode hex="0039"/>
  <outline>
    <contour>
      <point x="78" y="791" type="curve" smooth="yes"/>
      <point x="78" y="1011"/>
      <point x="223" y="1171"/>
      <point x="447" y="1171" type="curve" smooth="yes"/>
      <point x="754" y="1171"/>
      <point x="860" y="913"/>
      <point x="860" y="582" type="curve" smooth="yes"/>
      <point x="860" y="241"/>
      <point x="720" y="-18"/>
      <point x="455" y="-18" type="curve" smooth="yes"/>
      <point x="246" y="-18"/>
      <point x="104" y="104"/>
      <point x="98" y="305" type="curve" smooth="no"/>
      <point x="235" y="305" type="line" smooth="no"/>
      <point x="251" y="197"/>
      <point x="312" y="106"/>
      <point x="442" y="106" type="curve" smooth="yes"/>
      <point x="620" y="106"/>
      <point x="709" y="248"/>
      <point x="709" y="534" type="curve" smooth="no"/>
      <point x="640" y="465"/>
      <point x="549" y="430"/>
      <point x="436" y="430" type="curve" smooth="yes"/>
      <point x="215" y="430"/>
      <point x="78" y="572"/>
    </contour>
    <contour>
      <point x="703" y="694" type="curve" smooth="no"/>
      <point x="682" y="905"/>
      <point x="630" y="1036"/>
      <point x="455" y="1036" type="curve" smooth="yes"/>
      <point x="307" y="1036"/>
      <point x="223" y="937"/>
      <point x="223" y="791" type="curve" smooth="yes"/>
      <point x="223" y="666"/>
      <point x="296" y="572"/>
      <point x="432" y="572" type="curve" smooth="yes"/>
      <point x="540" y="572"/>
      <point x="653" y="637"/>
    </contour>
  </outline>
</glyph>
<glyph name="colon" format="1">
  <advance width="414"/>
  <unicode hex="003a"/>
  <outline>
    <contour>
      <point x="320" y="820" type="line" smooth="no"/>
      <point x="320" y="609" type="line" smooth="no"/>
      <point x="93" y="609" type="line" smooth="no"/>
      <point x="93" y="820" type="line" smooth="no"/>
    </contour>
    <contour>
      <point x="320" y="211" type="line" smooth="no"/>
      <point x="320" y="0" type="line" smooth="no"/>
      <point x="93" y="0" type="line" smooth="no"/>
      <point x="93" y="211" type="line" smooth="no"/>
    </contour>
  </outline>
</glyph>
<glyph name="semicolon" format="1">
  <advance width="414"/>
  <unicode hex="003b"/>
  <outline>
    <contour>
      <point x="320" y="820" type="line" smooth="no"/>
      <point x="320" y="609" type="line" smooth="no"/>
      <point x="93" y="609" type="line" smooth="no"/>
      <point x="93" y="820" type="line" smooth="no"/>
    </contour>
    <contour>
      <point x="327" y="211" type="line" smooth="no"/>
      <point x="327" y="0" type="line" smooth="no"/>
      <point x="328" y="-164"/>
      <point x="257" y="-239"/>
      <point x="100" y="-237" type="curve" smooth="no"/>
      <point x="100" y="-150" type="line" smooth="no"/>
      <point x="187" y="-132"/>
      <point x="221" y="-100"/>
      <point x="221" y="0" type="curve" smooth="no"/>
      <point x="100" y="0" type="line" smooth="no"/>
      <point x="100" y="211" type="line" smooth="no"/>
    </contour>
  </outline>
</glyph>
<glyph name="less" format="1">
  <advance width="1145"/>
  <unicode hex="003c"/>
  <outline>
    <contour>
      <point x="133" y="696" type="line" smooth="no"/>
      <point x="133" y="768" type="line" smooth="no"/>
      <point x="1012" y="1241" type="line" smooth="no"/>
      <point x="1012" y="1104" type="line" smooth="no"/>
      <point x="324" y="731" type="line" smooth="no"/>
      <point x="1012" y="362" type="line" smooth="no"/>
      <point x="1012" y="225" type="line" smooth="no"/>
    </contour>
  </outline>
</glyph>
<glyph name="equal" format="1">
  <advance width="1145"/>
  <unicode hex="003d"/>
  <outline>
    <contour>
      <point x="1012" y="993" type="line" smooth="no"/>
      <point x="1012" y="872" type="line" smooth="no"/>
      <point x="133" y="872" type="line" smooth="no"/>
      <point x="133" y="993" type="line" smooth="no"/>
    </contour>
    <contour>
      <point x="1012" y="590" type="line" smooth="no"/>
      <point x="1012" y="469" type="line" smooth="no"/>
      <point x="133" y="469" type="line" smooth="no"/>
      <point x="133" y="590" type="line" smooth="no"/>
    </contour>
  </outline>
</glyph>
<glyph name="greater" format="1">
  <advance width="1145"/>
  <unicode hex="003e"/>
  <outline>
    <contour>
      <point x="133" y="225" type="line" smooth="no"/>
      <point x="133" y="362" type="line" smooth="no"/>
      <point x="821" y="731" type="line" smooth="no"/>
      <point x="133" y="1104" type="line" smooth="no"/>
      <point x="133" y="1241" type="line" smooth="no"/>
      <point x="1012" y="768" type="line" smooth="no"/>
      <point x="1012" y="696" type="line" smooth="no"/>
    </contour>
  </outline>
</glyph>
<glyph name="A" format="1">
  <advance width="1181"/>
  <unicode hex="0041"/>
  <outline>
    <contour>
      <point x="783" y="545" type="line" smooth="no"/>
      <point x="628" y="1037" type="line" smooth="no"/>
      <point x="554" y="1037" type="line" smooth="no"/>
      <point x="398" y="545" type="line" smooth="no"/>
    </contour>
    <contour>
      <point x="-20" y="116" type="line" smooth="no"/>
      <point x="118" y="116" type="line" smooth="no"/>
      <point x="411" y="1037" type="line" smooth="no"/>
      <point x="311" y="1037" type="line" smooth="no"/>
      <point x="311" y="1153" type="line" smooth="no"/>
      <point x="871" y="1153" type="line" smooth="no"/>
      <point x="871" y="1037" type="line" smooth="no"/>
      <point x="770" y="1037" type="line" smooth="no"/>
      <point x="1064" y="116" type="line" smooth="no"/>
      <point x="1201" y="116" type="line" smooth="no"/>
      <point x="1201" y="0" type="line" smooth="no"/>
      <point x="748" y="0" type="line" smooth="no"/>
      <point x="748" y="116" type="line" smooth="no"/>
      <point x="898" y="116" type="line" smooth="no"/>
      <point x="813" y="424" type="line" smooth="no"/>
      <point x="368" y="424" type="line" smooth="no"/>
      <point x="284" y="116" type="line" smooth="no"/>
      <point x="433" y="116" type="line" smooth="no"/>
      <point x="433" y="0" type="line" smooth="no"/>
      <point x="-20" y="0" type="line" smooth="no"/>
    </contour>
  </outline>
</glyph>
<glyph name="B" format="1">
  <advance width="1040"/>
  <unicode hex="0042"/>
  <outline>
    <contour>
      <point x="543" y="661" type="line" smooth="no"/>
      <point x="686" y="662"/>
      <point x="768" y="719"/>
      <point x="768" y="851" type="curve" smooth="yes"/>
      <point x="768" y="975"/>
      <point x="685" y="1037"/>
      <point x="519" y="1037" type="curve" smooth="yes"/>
      <point x="380" y="1037" type="line" smooth="no"/>
      <point x="380" y="661" type="line" smooth="no"/>
    </contour>
    <contour>
      <point x="821" y="332" type="curve" smooth="yes"/>
      <point x="821" y="466"/>
      <point x="710" y="532"/>
      <point x="552" y="532" type="curve" smooth="yes"/>
      <point x="380" y="532" type="line" smooth="no"/>
      <point x="380" y="116" type="line" smooth="no"/>
      <point x="546" y="116" type="line" smooth="yes"/>
      <point x="729" y="116"/>
      <point x="821" y="188"/>
    </contour>
    <contour>
      <point x="988" y="323" type="curve" smooth="yes"/>
      <point x="988" y="94"/>
      <point x="796" y="0"/>
      <point x="547" y="0" type="curve" smooth="yes"/>
      <point x="72" y="0" type="line" smooth="no"/>
      <point x="72" y="116" type="line" smooth="no"/>
      <point x="220" y="116" type="line" smooth="no"/>
      <point x="220" y="1037" type="line" smooth="no"/>
      <point x="72" y="1037" type="line" smooth="no"/>
      <point x="72" y="1153" type="line" smooth="no"/>
      <point x="558" y="1153" type="line" smooth="no"/>
      <point x="781" y="1151"/>
      <point x="934" y="1058"/>
      <point x="934" y="854" type="curve" smooth="yes"/>
      <point x="934" y="740"/>
      <point x="867" y="649"/>
      <point x="773" y="607" type="curve" smooth="no"/>
      <point x="895" y="566"/>
      <point x="988" y="478"/>
    </contour>
  </outline>
</glyph>
<glyph name="C" format="1">
  <advance width="1228"/>
  <unicode hex="0043"/>
  <outline>
    <contour>
      <point x="658" y="-18" type="line" smooth="yes"/>
      <point x="290" y="-18"/>
      <point x="68" y="214"/>
      <point x="66" y="575" type="curve" smooth="no"/>
      <point x="66" y="939"/>
      <point x="297" y="1171"/>
      <point x="665" y="1171" type="curve" smooth="yes"/>
      <point x="667" y="1171" type="line" smooth="yes"/>
      <point x="810" y="1171"/>
      <point x="929" y="1121"/>
      <point x="1024" y="1022" type="curve" smooth="no"/>
      <point x="1024" y="1153" type="line" smooth="no"/>
      <point x="1154" y="1153" type="line" smooth="no"/>
      <point x="1154" y="804" type="line" smooth="no"/>
      <point x="1029" y="804" type="line" smooth="no"/>
      <point x="953" y="959"/>
      <point x="825" y="1036"/>
      <point x="645" y="1036" type="curve" smooth="yes"/>
      <point x="391" y="1036"/>
      <point x="243" y="837"/>
      <point x="243" y="580" type="curve" smooth="yes"/>
      <point x="243" y="313"/>
      <point x="397" y="116"/>
      <point x="647" y="116" type="curve" smooth="yes"/>
      <point x="859" y="116"/>
      <point x="993" y="203"/>
      <point x="1050" y="378" type="curve" smooth="no"/>
      <point x="1185" y="307" type="line" smooth="no"/>
      <point x="1105" y="113"/>
      <point x="926" y="-18"/>
      <point x="663" y="-18" type="curve" smooth="yes"/>
    </contour>
  </outline>
</glyph>
<glyph name="D" format="1">
  <advance width="1284"/>
  <unicode hex="0044"/>
  <outline>
    <contour>
      <point x="626" y="1153" type="line" smooth="yes"/>
      <point x="989" y="1153"/>
      <point x="1212" y="963"/>
      <point x="1212" y="596" type="curve" smooth="yes"/>
      <point x="1212" y="199"/>
      <point x="1012" y="0"/>
      <point x="612" y="0" type="curve" smooth="yes"/>
      <point x="72" y="0" type="line" smooth="no"/>
      <point x="72" y="116" type="line" smooth="no"/>
      <point x="231" y="116" type="line" smooth="no"/>
      <point x="231" y="1037" type="line" smooth="no"/>
      <point x="72" y="1037" type="line" smooth="no"/>
      <point x="72" y="1153" type="line" smooth="no"/>
    </contour>
    <contour>
      <point x="638" y="116" type="line" smooth="yes"/>
      <point x="913" y="116"/>
      <point x="1047" y="308"/>
      <point x="1047" y="581" type="curve" smooth="yes"/>
      <point x="1047" y="865"/>
      <point x="910" y="1037"/>
      <point x="622" y="1037" type="curve" smooth="yes"/>
      <point x="393" y="1037" type="line" smooth="no"/>
      <point x="393" y="116" type="line" smooth="no"/>
    </contour>
  </outline>
</glyph>
<glyph name="E" format="1">
  <advance width="1097"/>
  <unicode hex="0045"/>
  <outline>
    <contour>
      <point x="72" y="0" type="line" smooth="no"/>
      <point x="72" y="116" type="line" smooth="no"/>
      <point x="228" y="116" type="line" smooth="no"/>
      <point x="228" y="1037" type="line" smooth="no"/>
      <point x="72" y="1037" type="line" smooth="no"/>
      <point x="72" y="1153" type="line" smooth="no"/>
      <point x="1043" y="1153" type="line" smooth="no"/>
      <point x="1043" y="832" type="line" smooth="no"/>
      <point x="912" y="832" type="line" smooth="no"/>
      <point x="912" y="1037" type="line" smooth="no"/>
      <point x="387" y="1037" type="line" smooth="no"/>
      <point x="387" y="655" type="line" smooth="no"/>
      <point x="749" y="655" type="line" smooth="no"/>
      <point x="749" y="769" type="line" smooth="no"/>
      <point x="849" y="769" type="line" smooth="no"/>
      <point x="849" y="410" type="line" smooth="no"/>
      <point x="748" y="410" type="line" smooth="no"/>
      <point x="748" y="526" type="line" smooth="no"/>
      <point x="389" y="526" type="line" smooth="no"/>
      <point x="389" y="116" type="line" smooth="no"/>
      <point x="914" y="116" type="line" smooth="no"/>
      <point x="914" y="328" type="line" smooth="no"/>
      <point x="1043" y="328" type="line" smooth="no"/>
      <point x="1043" y="0" type="line" smooth="no"/>
    </contour>
  </outline>
</glyph>
<glyph name="F" format="1">
  <advance width="997"/>
  <unicode hex="0046"/>
  <outline>
    <contour>
      <point x="72" y="0" type="line" smooth="no"/>
      <point x="72" y="116" type="line" smooth="no"/>
      <point x="224" y="116" type="line" smooth="no"/>
      <point x="224" y="1037" type="line" smooth="no"/>
      <point x="72" y="1037" type="line" smooth="no"/>
      <point x="72" y="1153" type="line" smooth="no"/>
      <point x="989" y="1153" type="line" smooth="no"/>
      <point x="989" y="832" type="line" smooth="no"/>
      <point x="857" y="832" type="line" smooth="no"/>
      <point x="857" y="1037" type="line" smooth="no"/>
      <point x="384" y="1037" type="line" smooth="no"/>
      <point x="384" y="657" type="line" smooth="no"/>
      <point x="698" y="657" type="line" smooth="no"/>
      <point x="698" y="771" type="line" smooth="no"/>
      <point x="798" y="771" type="line" smooth="no"/>
      <point x="798" y="412" type="line" smooth="no"/>
      <point x="697" y="412" type="line" smooth="no"/>
      <point x="697" y="528" type="line" smooth="no"/>
      <point x="385" y="528" type="line" smooth="no"/>
      <point x="385" y="116" type="line" smooth="no"/>
      <point x="541" y="116" type="line" smooth="no"/>
      <point x="541" y="0" type="line" smooth="no"/>
    </contour>
  </outline>
</glyph>
<glyph name="G" format="1">
  <advance width="1284"/>
  <unicode hex="0047"/>
  <outline>
    <contour>
      <point x="66" y="575" type="curve" smooth="yes"/>
      <point x="66" y="925"/>
      <point x="299" y="1171"/>
      <point x="653" y="1171" type="curve" smooth="yes"/>
      <point x="812" y="1171"/>
      <point x="941" y="1121"/>
      <point x="1040" y="1022" type="curve" smooth="no"/>
      <point x="1040" y="1153" type="line" smooth="no"/>
      <point x="1170" y="1153" type="line" smooth="no"/>
      <point x="1170" y="804" type="line" smooth="no"/>
      <point x="1046" y="804" type="line" smooth="no"/>
      <point x="967" y="959"/>
      <point x="839" y="1037"/>
      <point x="662" y="1037" type="curve" smooth="yes"/>
      <point x="398" y="1037"/>
      <point x="245" y="843"/>
      <point x="245" y="576" type="curve" smooth="yes"/>
      <point x="245" y="304"/>
      <point x="404" y="116"/>
      <point x="677" y="116" type="curve" smooth="yes"/>
      <point x="923" y="116"/>
      <point x="1052" y="235"/>
      <point x="1059" y="436" type="curve" smooth="no"/>
      <point x="832" y="436" type="line" smooth="no"/>
      <point x="832" y="563" type="line" smooth="no"/>
      <point x="1223" y="563" type="line" smooth="no"/>
      <point x="1223" y="179"/>
      <point x="1041" y="-18"/>
      <point x="678" y="-18" type="curve" smooth="yes"/>
      <point x="301" y="-18"/>
      <point x="66" y="201"/>
    </contour>
  </outline>
</glyph>
<glyph name="H" format="1">
  <advance width="1294"/>
  <unicode hex="0048"/>
  <outline>
    <contour>
      <point x="72" y="0" type="line" smooth="no"/>
      <point x="72" y="116" type="line" smooth="no"/>
      <point x="211" y="116" type="line" smooth="no"/>
      <point x="211" y="1037" type="line" smooth="no"/>
      <point x="72" y="1037" type="line" smooth="no"/>
      <point x="72" y="1153" type="line" smooth="no"/>
      <point x="515" y="1153" type="line" smooth="no"/>
      <point x="515" y="1037" type="line" smooth="no"/>
      <point x="371" y="1037" type="line" smooth="no"/>
      <point x="371" y="667" type="line" smooth="no"/>
      <point x="922" y="667" type="line" smooth="no"/>
      <point x="922" y="1037" type="line" smooth="no"/>
      <point x="780" y="1037" type="line" smooth="no"/>
      <point x="780" y="1153" type="line" smooth="no"/>
      <point x="1222" y="1153" type="line" smooth="no"/>
      <point x="1222" y="1037" type="line" smooth="no"/>
      <point x="1083" y="1037" type="line" smooth="no"/>
      <point x="1083" y="116" type="line" smooth="no"/>
      <point x="1222" y="116" type="line" smooth="no"/>
      <point x="1222" y="0" type="line" smooth="no"/>
      <point x="780" y="0" type="line" smooth="no"/>
      <point x="780" y="116" type="line" smooth="no"/>
      <point x="923" y="116" type="line" smooth="no"/>
      <point x="923" y="538" type="line" smooth="no"/>
      <point x="372" y="538" type="line" smooth="no"/>
      <point x="372" y="116" type="line" smooth="no"/>
      <point x="515" y="116" type="line" smooth="no"/>
      <point x="515" y="0" type="line" smooth="no"/>
    </contour>
  </outline>
</glyph>
<glyph name="I" format="1">
  <advance width="582"/>
  <unicode hex="0049"/>
  <outline>
    <contour>
      <point x="77" y="0" type="line" smooth="no"/>
      <point x="77" y="116" type="line" smooth="no"/>
      <point x="211" y="116" type="line" smooth="no"/>
      <point x="211" y="1037" type="line" smooth="no"/>
      <point x="77" y="1037" type="line" smooth="no"/>
      <point x="77" y="1153" type="line" smooth="no"/>
      <point x="505" y="1153" type="line" smooth="no"/>
      <point x="505" y="1037" type="line" smooth="no"/>
      <point x="373" y="1037" type="line" smooth="no"/>
      <point x="373" y="116" type="line" smooth="no"/>
      <point x="505" y="116" type="line" smooth="no"/>
      <point x="505" y="0" type="line" smooth="no"/>
    </contour>
  </outline>
</glyph>
<glyph name="J" format="1">
  <advance width="585"/>
  <unicode hex="004a"/>
  <outline>
    <contour>
      <point x="409" y="99" type="line" smooth="yes"/>
      <point x="409" y="-74"/>
      <point x="321" y="-181"/>
      <point x="162" y="-179" type="curve" smooth="no"/>
      <point x="15" y="-179" type="line" smooth="no"/>
      <point x="15" y="-34" type="line" smooth="no"/>
      <point x="135" y="-34" type="line" smooth="yes"/>
      <point x="225" y="-34"/>
      <point x="246" y="22"/>
      <point x="246" y="117" type="curve" smooth="yes"/>
      <point x="246" y="1037" type="line" smooth="no"/>
      <point x="91" y="1037" type="line" smooth="no"/>
      <point x="91" y="1153" type="line" smooth="no"/>
      <point x="562" y="1153" type="line" smooth="no"/>
      <point x="562" y="1037" type="line" smooth="no"/>
      <point x="409" y="1037" type="line" smooth="no"/>
    </contour>
  </outline>
</glyph>
<glyph name="L" format="1">
  <advance width="966"/>
  <unicode hex="004c"/>
  <outline>
    <contour>
      <point x="72" y="0" type="line" smooth="no"/>
      <point x="72" y="116" type="line" smooth="no"/>
      <point x="230" y="116" type="line" smooth="no"/>
      <point x="230" y="1037" type="line" smooth="no"/>
      <point x="72" y="1037" type="line" smooth="no"/>
      <point x="72" y="1153" type="line" smooth="no"/>
      <point x="546" y="1153" type="line" smooth="no"/>
      <point x="546" y="1037" type="line" smooth="no"/>
      <point x="391" y="1037" type="line" smooth="no"/>
      <point x="391" y="116" type="line" smooth="no"/>
      <point x="801" y="116" type="line" smooth="no"/>
      <point x="801" y="452" type="line" smooth="no"/>
      <point x="946" y="452" type="line" smooth="no"/>
      <point x="946" y="0" type="line" smooth="no"/>
    </contour>
  </outline>
</glyph>
<glyph name="M" format="1">
  <advance width="1590"/>
  <unicode hex="004d"/>
  <outline>
    <contour>
      <point x="220" y="1037" type="line" smooth="no"/>
      <point x="72" y="1037" type="line" smooth="no"/>
      <point x="72" y="1153" type="line" smooth="no"/>
      <point x="457" y="1153" type="line" smooth="no"/>
      <point x="790" y="317" type="line" smooth="no"/>
      <point x="1128" y="1153" type="line" smooth="no"/>
      <point x="1518" y="1153" type="line" smooth="no"/>
      <point x="1518" y="1037" type="line" smooth="no"/>
      <point x="1371" y="1037" type="line" smooth="no"/>
      <point x="1371" y="116" type="line" smooth="no"/>
      <point x="1518" y="116" type="line" smooth="no"/>
      <point x="1518" y="0" type="line" smooth="no"/>
      <point x="1090" y="0" type="line" smooth="no"/>
      <point x="1090" y="116" type="line" smooth="no"/>
      <point x="1223" y="116" type="line" smooth="no"/>
      <point x="1223" y="1023" type="line" smooth="no"/>
      <point x="808" y="0" type="line" smooth="no"/>
      <point x="766" y="0" type="line" smooth="no"/>
      <point x="354" y="1022" type="line" smooth="no"/>
      <point x="354" y="116" type="line" smooth="no"/>
      <point x="487" y="116" type="line" smooth="no"/>
      <point x="487" y="0" type="line" smooth="no"/>
      <point x="72" y="0" type="line" smooth="no"/>
      <point x="72" y="116" type="line" smooth="no"/>
      <point x="220" y="116" type="line" smooth="no"/>
    </contour>
  </outline>
</glyph>
<glyph name="N" format="1">
  <advance width="1326"/>
  <unicode hex="004e"/>
  <outline>
    <contour>
      <point x="1002" y="1037" type="line" smooth="no"/>
      <point x="837" y="1037" type="line" smooth="no"/>
      <point x="837" y="1153" type="line" smooth="no"/>
      <point x="1309" y="1153" type="line" smooth="no"/>
      <point x="1309" y="1037" type="line" smooth="no"/>
      <point x="1136" y="1037" type="line" smooth="no"/>
      <point x="1136" y="0" type="line" smooth="no"/>
      <point x="953" y="0" type="line" smooth="no"/>
      <point x="375" y="997" type="line" smooth="no"/>
      <point x="375" y="116" type="line" smooth="no"/>
      <point x="544" y="116" type="line" smooth="no"/>
      <point x="544" y="0" type="line" smooth="no"/>
      <point x="72" y="0" type="line" smooth="no"/>
      <point x="72" y="116" type="line" smooth="no"/>
      <point x="241" y="116" type="line" smooth="no"/>
      <point x="241" y="1037" type="line" smooth="no"/>
      <point x="72" y="1037" type="line" smooth="no"/>
      <point x="72" y="1153" type="line" smooth="no"/>
      <point x="454" y="1153" type="line" smooth="no"/>
      <point x="1002" y="211" type="line" smooth="no"/>
    </contour>
  </outline>
</glyph>
<glyph name="O" format="1">
  <advance width="1321"/>
  <unicode hex="004f"/>
  <outline>
    <contour>
      <point x="660" y="116" type="curve" smooth="yes"/>
      <point x="411" y="116"/>
      <point x="243" y="324"/>
      <point x="243" y="576" type="curve" smooth="yes"/>
      <point x="243" y="830"/>
      <point x="410" y="1036"/>
      <point x="660" y="1037" type="curve" smooth="no"/>
      <point x="911" y="1036"/>
      <point x="1078" y="831"/>
      <point x="1078" y="576" type="curve" smooth="yes"/>
      <point x="1078" y="322"/>
      <point x="912" y="116"/>
    </contour>
    <contour>
      <point x="66" y="575" type="curve" smooth="yes"/>
      <point x="66" y="229"/>
      <point x="309" y="-17"/>
      <point x="660" y="-19" type="curve" smooth="no"/>
      <point x="1011" y="-19"/>
      <point x="1256" y="234"/>
      <point x="1256" y="575" type="curve" smooth="yes"/>
      <point x="1256" y="924"/>
      <point x="1013" y="1170"/>
      <point x="659" y="1170" type="curve" smooth="yes"/>
      <point x="306" y="1170"/>
      <point x="66" y="923"/>
    </contour>
  </outline>
</glyph>
<glyph name="P" format="1">
  <advance width="1043"/>
  <unicode hex="0050"/>
  <outline>
    <contour>
      <point x="836" y="807" type="curve" smooth="no"/>
      <point x="836" y="952"/>
      <point x="755" y="1037"/>
      <point x="610" y="1037" type="curve" smooth="yes"/>
      <point x="383" y="1037" type="line" smooth="no"/>
      <point x="383" y="577" type="line" smooth="no"/>
      <point x="561" y="577" type="line" smooth="yes"/>
      <point x="747" y="577"/>
      <point x="833" y="645"/>
    </contour>
    <contour>
      <point x="1001" y="805" type="curve" smooth="yes"/>
      <point x="1001" y="553"/>
      <point x="813" y="472"/>
      <point x="531" y="472" type="curve" smooth="yes"/>
      <point x="385" y="472" type="line" smooth="no"/>
      <point x="385" y="116" type="line" smooth="no"/>
      <point x="543" y="116" type="line" smooth="no"/>
      <point x="543" y="0" type="line" smooth="no"/>
      <point x="72" y="0" type="line" smooth="no"/>
      <point x="72" y="116" type="line" smooth="no"/>
      <point x="223" y="116" type="line" smooth="no"/>
      <point x="223" y="1037" type="line" smooth="no"/>
      <point x="72" y="1037" type="line" smooth="no"/>
      <point x="72" y="1153" type="line" smooth="no"/>
      <point x="608" y="1153" type="line" smooth="yes"/>
      <point x="847" y="1153"/>
      <point x="1001" y="1039"/>
    </contour>
  </outline>
</glyph>
<glyph name="Q" format="1">
  <advance width="1323"/>
  <unicode hex="0051"/>
  <outline>
    <contour>
      <point x="1079" y="574" type="curve" smooth="yes"/>
      <point x="1079" y="830"/>
      <point x="913" y="1036"/>
      <point x="660" y="1037" type="curve" smooth="no"/>
      <point x="409" y="1036"/>
      <point x="243" y="829"/>
      <point x="243" y="574" type="curve" smooth="yes"/>
      <point x="243" y="319"/>
      <point x="407" y="116"/>
      <point x="660" y="116" type="curve" smooth="yes"/>
      <point x="915" y="116"/>
      <point x="1079" y="317"/>
    </contour>
    <contour>
      <point x="665" y="1171" type="curve" smooth="yes"/>
      <point x="1009" y="1171"/>
      <point x="1257" y="921"/>
      <point x="1257" y="586" type="curve" smooth="yes"/>
      <point x="1257" y="251"/>
      <point x="1035" y="27"/>
      <point x="725" y="-5" type="curve" smooth="no"/>
      <point x="817" y="-32"/>
      <point x="900" y="-81"/>
      <point x="1015" y="-81" type="curve" smooth="yes"/>
      <point x="1041" y="-81"/>
      <point x="1066" y="-77"/>
      <point x="1089" y="-70" type="curve" smooth="no"/>
      <point x="1090" y="-218" type="line" smooth="no"/>
      <point x="1059" y="-227"/>
      <point x="1030" y="-231"/>
      <point x="1001" y="-231" type="curve" smooth="yes"/>
      <point x="915" y="-231"/>
      <point x="858" y="-207"/>
      <point x="797" y="-180" type="curve" smooth="no"/>
      <point x="718" y="-147"/>
      <point x="639" y="-130"/>
      <point x="559" y="-130" type="curve" smooth="yes"/>
      <point x="479" y="-130"/>
      <point x="399" y="-148"/>
      <point x="318" y="-183" type="curve" smooth="no"/>
      <point x="317" y="-46" type="line" smooth="no"/>
      <point x="388" y="-9"/>
      <point x="453" y="9"/>
      <point x="512" y="9" type="curve" smooth="no"/>
      <point x="258" y="67"/>
      <point x="66" y="273"/>
      <point x="66" y="573" type="curve" smooth="yes"/>
      <point x="66" y="924"/>
      <point x="308" y="1171"/>
    </contour>
  </outline>
</glyph>
<glyph name="R" format="1">
  <advance width="1107"/>
  <unicode hex="0052"/>
  <outline>
    <contour>
      <point x="623" y="1153" type="line" smooth="yes"/>
      <point x="858" y="1153"/>
      <point x="1003" y="1067"/>
      <point x="1003" y="855" type="curve" smooth="yes"/>
      <point x="1003" y="691"/>
      <point x="917" y="592"/>
      <point x="744" y="558" type="curve" smooth="no"/>
      <point x="978" y="116" type="line" smooth="no"/>
      <point x="1124" y="116" type="line" smooth="no"/>
      <point x="1124" y="0" type="line" smooth="no"/>
      <point x="871" y="0" type="line" smooth="no"/>
      <point x="588" y="538" type="line" smooth="no"/>
      <point x="395" y="538" type="line" smooth="no"/>
      <point x="395" y="116" type="line" smooth="no"/>
      <point x="551" y="116" type="line" smooth="no"/>
      <point x="551" y="0" type="line" smooth="no"/>
      <point x="72" y="0" type="line" smooth="no"/>
      <point x="72" y="116" type="line" smooth="no"/>
      <point x="235" y="116" type="line" smooth="no"/>
      <point x="235" y="1037" type="line" smooth="no"/>
      <point x="72" y="1037" type="line" smooth="no"/>
      <point x="72" y="1153" type="line" smooth="no"/>
    </contour>
    <contour>
      <point x="395" y="657" type="line" smooth="no"/>
      <point x="618" y="657" type="line" smooth="no"/>
      <point x="759" y="658"/>
      <point x="837" y="726"/>
      <point x="837" y="857" type="curve" smooth="yes"/>
      <point x="837" y="979"/>
      <point x="739" y="1037"/>
      <point x="611" y="1037" type="curve" smooth="yes"/>
      <point x="395" y="1037" type="line" smooth="no"/>
    </contour>
  </outline>
</glyph>
<glyph name="S" format="1">
  <advance width="965"/>
  <unicode hex="0053"/>
  <outline>
    <contour>
      <point x="506" y="116" type="curve" smooth="yes"/>
      <point x="638" y="116"/>
      <point x="749" y="178"/>
      <point x="749" y="298" type="curve" smooth="yes"/>
      <point x="749" y="642"/>
      <point x="92" y="399"/>
      <point x="92" y="858" type="curve" smooth="yes"/>
      <point x="92" y="1059"/>
      <point x="248" y="1171"/>
      <point x="448" y="1171" type="curve" smooth="yes"/>
      <point x="549" y="1171"/>
      <point x="639" y="1140"/>
      <point x="717" y="1079" type="curve" smooth="no"/>
      <point x="717" y="1153" type="line" smooth="no"/>
      <point x="852" y="1153" type="line" smooth="no"/>
      <point x="852" y="826" type="line" smooth="no"/>
      <point x="717" y="826" type="line" smooth="no"/>
      <point x="717" y="908" type="line" smooth="no"/>
      <point x="654" y="994"/>
      <point x="570" y="1037"/>
      <point x="466" y="1037" type="curve" smooth="yes"/>
      <point x="335" y="1037"/>
      <point x="248" y="984"/>
      <point x="248" y="855" type="curve" smooth="yes"/>
      <point x="248" y="563"/>
      <point x="914" y="771"/>
      <point x="914" y="303" type="curve" smooth="yes"/>
      <point x="914" y="105"/>
      <point x="741" y="-18"/>
      <point x="532" y="-18" type="curve" smooth="yes"/>
      <point x="418" y="-18"/>
      <point x="319" y="17"/>
      <point x="235" y="87" type="curve" smooth="no"/>
      <point x="235" y="0" type="line" smooth="no"/>
      <point x="100" y="0" type="line" smooth="no"/>
      <point x="100" y="387" type="line" smooth="no"/>
      <point x="235" y="387" type="line" smooth="no"/>
      <point x="235" y="271" type="line" smooth="no"/>
      <point x="314" y="168"/>
      <point x="405" y="116"/>
    </contour>
  </outline>
</glyph>
<glyph name="T" format="1">
  <advance width="1009"/>
  <unicode hex="0054"/>
  <outline>
    <contour>
      <point x="978" y="1153" type="line" smooth="no"/>
      <point x="978" y="805" type="line" smooth="no"/>
      <point x="847" y="805" type="line" smooth="no"/>
      <point x="847" y="1037" type="line" smooth="no"/>
      <point x="588" y="1037" type="line" smooth="no"/>
      <point x="588" y="116" type="line" smooth="no"/>
      <point x="762" y="116" type="line" smooth="no"/>
      <point x="762" y="0" type="line" smooth="no"/>
      <point x="250" y="0" type="line" smooth="no"/>
      <point x="250" y="116" type="line" smooth="no"/>
      <point x="425" y="116" type="line" smooth="no"/>
      <point x="425" y="1037" type="line" smooth="no"/>
      <point x="160" y="1037" type="line" smooth="no"/>
      <point x="160" y="805" type="line" smooth="no"/>
      <point x="31" y="805" type="line" smooth="no"/>
      <point x="31" y="1153" type="line" smooth="no"/>
    </contour>
  </outline>
</glyph>
<glyph name="U" format="1">
  <advance width="1175"/>
  <unicode hex="0055"/>
  <outline>
    <contour>
      <point x="580" y="-18" type="curve" smooth="yes"/>
      <point x="316" y="-18"/>
      <point x="164" y="116"/>
      <point x="164" y="382" type="curve" smooth="yes"/>
      <point x="164" y="1037" type="line" smooth="no"/>
      <point x="16" y="1037" type="line" smooth="no"/>
      <point x="16" y="1153" type="line" smooth="no"/>
      <point x="468" y="1153" type="line" smooth="no"/>
      <point x="468" y="1037" type="line" smooth="no"/>
      <point x="326" y="1037" type="line" smooth="no"/>
      <point x="326" y="378" type="line" smooth="yes"/>
      <point x="326" y="195"/>
      <point x="409" y="116"/>
      <point x="587" y="116" type="curve" smooth="yes"/>
      <point x="778" y="116"/>
      <point x="850" y="202"/>
      <point x="850" y="389" type="curve" smooth="yes"/>
      <point x="850" y="1037" type="line" smooth="no"/>
      <point x="708" y="1037" type="line" smooth="no"/>
      <point x="708" y="1153" type="line" smooth="no"/>
      <point x="1159" y="1153" type="line" smooth="no"/>
      <point x="1159" y="1037" type="line" smooth="no"/>
      <point x="1012" y="1037" type="line" smooth="no"/>
      <point x="1012" y="380" type="line" smooth="yes"/>
      <point x="1012" y="106"/>
      <point x="855" y="-18"/>
    </contour>
  </outline>
</glyph>
<glyph name="V" format="1">
  <advance width="1207"/>
  <unicode hex="0056"/>
  <outline>
    <contour>
      <point x="126" y="1037" type="line" smooth="no"/>
      <point x="-20" y="1037" type="line" smooth="no"/>
      <point x="-20" y="1153" type="line" smooth="no"/>
      <point x="435" y="1153" type="line" smooth="no"/>
      <point x="435" y="1037" type="line" smooth="no"/>
      <point x="294" y="1037" type="line" smooth="no"/>
      <point x="611" y="184" type="line" smooth="no"/>
      <point x="923" y="1037" type="line" smooth="no"/>
      <point x="782" y="1037" type="line" smooth="no"/>
      <point x="782" y="1153" type="line" smooth="no"/>
      <point x="1227" y="1153" type="line" smooth="no"/>
      <point x="1227" y="1037" type="line" smooth="no"/>
      <point x="1081" y="1037" type="line" smooth="no"/>
      <point x="683" y="0" type="line" smooth="no"/>
      <point x="529" y="0" type="line" smooth="no"/>
    </contour>
  </outline>
</glyph>
<glyph name="W" format="1">
  <advance width="1758"/>
  <unicode hex="0057"/>
  <outline>
    <contour>
      <point x="1492" y="1037" type="line" smooth="no"/>
      <point x="1348" y="1037" type="line" smooth="no"/>
      <point x="1348" y="1153" type="line" smooth="no"/>
      <point x="1775" y="1153" type="line" smooth="no"/>
      <point x="1775" y="1037" type="line" smooth="no"/>
      <point x="1633" y="1037" type="line" smooth="no"/>
      <point x="1323" y="0" type="line" smooth="no"/>
      <point x="1165" y="0" type="line" smooth="no"/>
      <point x="879" y="928" type="line" smooth="no"/>
      <point x="597" y="0" type="line" smooth="no"/>
      <point x="444" y="0" type="line" smooth="no"/>
      <point x="128" y="1037" type="line" smooth="no"/>
      <point x="-17" y="1037" type="line" smooth="no"/>
      <point x="-17" y="1153" type="line" smooth="no"/>
      <point x="426" y="1153" type="line" smooth="no"/>
      <point x="426" y="1037" type="line" smooth="no"/>
      <point x="282" y="1037" type="line" smooth="no"/>
      <point x="527" y="210" type="line" smooth="no"/>
      <point x="767" y="1037" type="line" smooth="no"/>
      <point x="627" y="1037" type="line" smooth="no"/>
      <point x="627" y="1153" type="line" smooth="no"/>
      <point x="1146" y="1153" type="line" smooth="no"/>
      <point x="1146" y="1037" type="line" smooth="no"/>
      <point x="1007" y="1037" type="line" smooth="no"/>
      <point x="1248" y="210" type="line" smooth="no"/>
    </contour>
  </outline>
</glyph>
<glyph name="X" format="1">
  <advance width="1150"/>
  <unicode hex="0058"/>
  <outline>
    <contour>
      <point x="14" y="0" type="line" smooth="no"/>
      <point x="14" y="116" type="line" smooth="no"/>
      <point x="175" y="116" type="line" smooth="no"/>
      <point x="488" y="582" type="line" smooth="no"/>
      <point x="179" y="1037" type="line" smooth="no"/>
      <point x="25" y="1037" type="line" smooth="no"/>
      <point x="25" y="1153" type="line" smooth="no"/>
      <point x="487" y="1153" type="line" smooth="no"/>
      <point x="487" y="1037" type="line" smooth="no"/>
      <point x="352" y="1037" type="line" smooth="no"/>
      <point x="574" y="705" type="line" smooth="no"/>
      <point x="800" y="1037" type="line" smooth="no"/>
      <point x="660" y="1037" type="line" smooth="no"/>
      <point x="660" y="1153" type="line" smooth="no"/>
      <point x="1106" y="1153" type="line" smooth="no"/>
      <point x="1106" y="1037" type="line" smooth="no"/>
      <point x="955" y="1037" type="line" smooth="no"/>
      <point x="653" y="595" type="line" smooth="no"/>
      <point x="981" y="116" type="line" smooth="no"/>
      <point x="1136" y="116" type="line" smooth="no"/>
      <point x="1136" y="0" type="line" smooth="no"/>
      <point x="664" y="0" type="line" smooth="no"/>
      <point x="664" y="116" type="line" smooth="no"/>
      <point x="803" y="116" type="line" smooth="no"/>
      <point x="567" y="470" type="line" smooth="no"/>
      <point x="331" y="116" type="line" smooth="no"/>
      <point x="475" y="116" type="line" smooth="no"/>
      <point x="475" y="0" type="line" smooth="no"/>
    </contour>
  </outline>
</glyph>
<glyph name="Y" format="1">
  <advance width="1129"/>
  <unicode hex="0059"/>
  <outline>
    <contour>
      <point x="328" y="0" type="line" smooth="no"/>
      <point x="328" y="116" type="line" smooth="no"/>
      <point x="487" y="116" type="line" smooth="no"/>
      <point x="487" y="530" type="line" smooth="no"/>
      <point x="129" y="1037" type="line" smooth="no"/>
      <point x="-20" y="1037" type="line" smooth="no"/>
      <point x="-20" y="1153" type="line" smooth="no"/>
      <point x="455" y="1153" type="line" smooth="no"/>
      <point x="455" y="1037" type="line" smooth="no"/>
      <point x="305" y="1037" type="line" smooth="no"/>
      <point x="579" y="648" type="line" smooth="no"/>
      <point x="836" y="1037" type="line" smooth="no"/>
      <point x="686" y="1037" type="line" smooth="no"/>
      <point x="686" y="1153" type="line" smooth="no"/>
      <point x="1146" y="1153" type="line" smooth="no"/>
      <point x="1146" y="1037" type="line" smooth="no"/>
      <point x="990" y="1037" type="line" smooth="no"/>
      <point x="647" y="530" type="line" smooth="no"/>
      <point x="647" y="116" type="line" smooth="no"/>
      <point x="811" y="116" type="line" smooth="no"/>
      <point x="811" y="0" type="line" smooth="no"/>
    </contour>
  </outline>
</glyph>
<glyph name="Z" format="1">
  <advance width="959"/>
  <unicode hex="005a"/>
  <outline>
    <contour>
      <point x="48" y="0" type="line" smooth="no"/>
      <point x="48" y="128" type="line" smooth="no"/>
      <point x="705" y="1037" type="line" smooth="no"/>
      <point x="207" y="1037" type="line" smooth="no"/>
      <point x="207" y="833" type="line" smooth="no"/>
      <point x="78" y="833" type="line" smooth="no"/>
      <point x="78" y="1153" type="line" smooth="no"/>
      <point x="910" y="1153" type="line" smooth="no"/>
      <point x="910" y="1041" type="line" smooth="no"/>
      <point x="243" y="116" type="line" smooth="no"/>
      <point x="791" y="116" type="line" smooth="no"/>
      <point x="791" y="335" type="line" smooth="no"/>
      <point x="920" y="335" type="line" smooth="no"/>
      <point x="920" y="0" type="line" smooth="no"/>
    </contour>
  </outline>
</glyph>
<glyph name="bracketleft" format="1">
  <advance width="569"/>
  <unicode hex="005b"/>
  <outline>
    <contour>
      <point x="541" y="1262" type="line" smooth="no"/>
      <point x="541" y="1153" type="line" smooth="no"/>
      <point x="290" y="1153" type="line" smooth="no"/>
      <point x="290" y="-112" type="line" smooth="no"/>
      <point x="541" y="-112" type="line" smooth="no"/>
      <point x="541" y="-219" type="line" smooth="no"/>
      <point x="147" y="-219" type="line" smooth="no"/>
      <point x="147" y="1262" type="line" smooth="no"/>
    </contour>
  </outline>
</glyph>
<glyph name="backslash" format="1">
  <advance width="793"/>
  <unicode hex="005c"/>
  <outline>
    <contour>
      <point x="258" y="1171" type="line" smooth="no"/>
      <point x="692" y="-18" type="line" smooth="no"/>
      <point x="563" y="-18" type="line" smooth="no"/>
      <point x="129" y="1171" type="line" smooth="no"/>
    </contour>
  </outline>
</glyph>
<glyph name="bracketright" format="1">
  <advance width="569"/>
  <unicode hex="005d"/>
  <outline>
    <contour>
      <point x="426" y="1262" type="line" smooth="no"/>
      <point x="426" y="-219" type="line" smooth="no"/>
      <point x="32" y="-219" type="line" smooth="no"/>
      <point x="32" y="-112" type="line" smooth="no"/>
      <point x="283" y="-112" type="line" smooth="no"/>
      <point x="283" y="1153" type="line" smooth="no"/>
      <point x="32" y="1153" type="line" smooth="no"/>
      <point x="32" y="1262" type="line" smooth="no"/>
    </contour>
  </outline>
</glyph>
<glyph name="asciicircum" format="1">
  <advance width="826"/>
  <unicode hex="005e"/>
  <outline>
    <contour>
      <point x="788" y="605" type="line" smooth="no"/>
      <point x="637" y="605" type="line" smooth="no"/>
      <point x="415" y="1040" type="line" smooth="no"/>
      <point x="189" y="605" type="line" smooth="no"/>
      <point x="38" y="605" type="line" smooth="no"/>
      <point x="339" y="1171" type="line" smooth="no"/>
      <point x="492" y="1171" type="line" smooth="no"/>
    </contour>
  </outline>
</glyph>
<glyph name="underscore" format="1">
  <advance width="898"/>
  <unicode hex="005f"/>
  <outline>
    <contour>
      <point x="898" y="-82" type="line" smooth="no"/>
      <point x="898" y="-199" type="line" smooth="no"/>
      <point x="0" y="-199" type="line" smooth="no"/>
      <point x="0" y="-82" type="line" smooth="no"/>
    </contour>
  </outline>
</glyph>
<glyph name="a" format="1">
  <advance width="889"/>
  <unicode hex="0061"/>
  <outline>
    <contour>
      <point x="196" y="218" type="curve" smooth="yes"/>
      <point x="196" y="141"/>
      <point x="255" y="89"/>
      <point x="346" y="89" type="curve" smooth="yes"/>
      <point x="449" y="89"/>
      <point x="532" y="119"/>
      <point x="595" y="178" type="curve" smooth="no"/>
      <point x="595" y="352" type="line" smooth="no"/>
      <point x="548" y="353"/>
      <point x="473" y="368"/>
      <point x="420" y="368" type="curve" smooth="yes"/>
      <point x="286" y="368"/>
      <point x="196" y="338"/>
    </contour>
    <contour>
      <point x="338" y="-18" type="curve" smooth="yes"/>
      <point x="189" y="-18"/>
      <point x="56" y="68"/>
      <point x="56" y="204" type="curve" smooth="yes"/>
      <point x="55" y="405"/>
      <point x="189" y="470"/>
      <point x="402" y="470" type="curve" smooth="yes"/>
      <point x="463" y="470"/>
      <point x="527" y="463"/>
      <point x="595" y="450" type="curve" smooth="no"/>
      <point x="595" y="547" type="line" smooth="yes"/>
      <point x="595" y="646"/>
      <point x="533" y="698"/>
      <point x="409" y="701" type="curve" smooth="no"/>
      <point x="312" y="701"/>
      <point x="240" y="671"/>
      <point x="194" y="610" type="curve" smooth="no"/>
      <point x="102" y="708" type="line" smooth="no"/>
      <point x="177" y="783"/>
      <point x="277" y="820"/>
      <point x="404" y="820" type="curve" smooth="yes"/>
      <point x="618" y="820"/>
      <point x="744" y="743"/>
      <point x="744" y="554" type="curve" smooth="yes"/>
      <point x="744" y="116" type="line" smooth="no"/>
      <point x="888" y="116" type="line" smooth="no"/>
      <point x="888" y="0" type="line" smooth="no"/>
      <point x="611" y="0" type="line" smooth="no"/>
      <point x="609" y="83" type="line" smooth="no"/>
      <point x="516" y="16"/>
      <point x="426" y="-18"/>
    </contour>
  </outline>
</glyph>
<glyph name="b" format="1">
  <advance width="1061"/>
  <unicode hex="0062"/>
  <outline>
    <contour>
      <point x="841" y="396" type="curve" smooth="yes"/>
      <point x="841" y="236"/>
      <point x="760" y="107"/>
      <point x="604" y="107" type="curve" smooth="yes"/>
      <point x="536" y="107"/>
      <point x="411" y="121"/>
      <point x="327" y="229" type="curve" smooth="no"/>
      <point x="327" y="564" type="line" smooth="no"/>
      <point x="406" y="651"/>
      <point x="499" y="694"/>
      <point x="587" y="694" type="curve" smooth="yes"/>
      <point x="760" y="694"/>
      <point x="841" y="566"/>
    </contour>
    <contour>
      <point x="622" y="-18" type="curve" smooth="yes"/>
      <point x="858" y="-18"/>
      <point x="1004" y="167"/>
      <point x="1004" y="401" type="curve" smooth="yes"/>
      <point x="1003" y="636"/>
      <point x="857" y="820"/>
      <point x="621" y="820" type="curve" smooth="yes"/>
      <point x="503" y="820"/>
      <point x="409" y="782"/>
      <point x="327" y="707" type="curve" smooth="no"/>
      <point x="327" y="1153" type="line" smooth="no"/>
      <point x="33" y="1153" type="line" smooth="no"/>
      <point x="33" y="1037" type="line" smooth="no"/>
      <point x="176" y="1037" type="line" smooth="no"/>
      <point x="176" y="116" type="line" smooth="no"/>
      <point x="42" y="116" type="line" smooth="no"/>
      <point x="42" y="0" type="line" smooth="no"/>
      <point x="322" y="0" type="line" smooth="no"/>
      <point x="326" y="111" type="line" smooth="no"/>
      <point x="383" y="30"/>
      <point x="502" y="-18"/>
    </contour>
  </outline>
</glyph>
<glyph name="c" format="1">
  <advance width="900"/>
  <unicode hex="0063"/>
  <outline>
    <contour>
      <point x="464" y="820" type="curve" smooth="yes"/>
      <point x="555" y="820"/>
      <point x="657" y="783"/>
      <point x="692" y="713" type="curve" smooth="no"/>
      <point x="688" y="805" type="line" smooth="no"/>
      <point x="821" y="805" type="line" smooth="no"/>
      <point x="821" y="517" type="line" smooth="no"/>
      <point x="692" y="517" type="line" smooth="no"/>
      <point x="661" y="628"/>
      <point x="587" y="687"/>
      <point x="472" y="694" type="curve" smooth="no"/>
      <point x="300" y="694"/>
      <point x="217" y="576"/>
      <point x="217" y="400" type="curve" smooth="yes"/>
      <point x="217" y="225"/>
      <point x="304" y="107"/>
      <point x="469" y="107" type="curve" smooth="yes"/>
      <point x="590" y="107"/>
      <point x="680" y="153"/>
      <point x="741" y="246" type="curve" smooth="no"/>
      <point x="830" y="157" type="line" smooth="no"/>
      <point x="753" y="40"/>
      <point x="631" y="-19"/>
      <point x="465" y="-19" type="curve" smooth="yes"/>
      <point x="216" y="-19"/>
      <point x="57" y="143"/>
      <point x="57" y="408" type="curve" smooth="yes"/>
      <point x="57" y="648"/>
      <point x="232" y="820"/>
    </contour>
  </outline>
</glyph>
<glyph name="e" format="1">
  <advance width="949"/>
  <unicode hex="0065"/>
  <outline>
    <contour>
      <point x="757" y="467" type="line" smooth="no"/>
      <point x="741" y="598"/>
      <point x="649" y="694"/>
      <point x="503" y="694" type="curve" smooth="yes"/>
      <point x="346" y="694"/>
      <point x="251" y="610"/>
      <point x="226" y="467" type="curve" smooth="no"/>
    </contour>
    <contour>
      <point x="505" y="-18" type="curve" smooth="yes"/>
      <point x="247" y="-18"/>
      <point x="57" y="151"/>
      <point x="57" y="402" type="curve" smooth="yes"/>
      <point x="57" y="646"/>
      <point x="253" y="820"/>
      <point x="499" y="820" type="curve" smooth="yes"/>
      <point x="756" y="820"/>
      <point x="901" y="631"/>
      <point x="901" y="365" type="curve" smooth="no"/>
      <point x="222" y="365" type="line" smooth="no"/>
      <point x="231" y="209"/>
      <point x="341" y="108"/>
      <point x="505" y="107" type="curve" smooth="yes"/>
      <point x="613" y="107"/>
      <point x="718" y="157"/>
      <point x="770" y="233" type="curve" smooth="no"/>
      <point x="872" y="157" type="line" smooth="no"/>
      <point x="796" y="40"/>
      <point x="674" y="-18"/>
    </contour>
  </outline>
</glyph>
<glyph name="f" format="1">
  <advance width="555"/>
  <unicode hex="0066"/>
  <outline>
    <contour>
      <point x="185" y="943" type="line" smooth="yes"/>
      <point x="185" y="1084"/>
      <point x="268" y="1171"/>
      <point x="416" y="1171" type="curve" smooth="yes"/>
      <point x="544" y="1171"/>
      <point x="616" y="1091"/>
      <point x="616" y="963" type="curve" smooth="no"/>
      <point x="486" y="963" type="line" smooth="no"/>
      <point x="486" y="1017"/>
      <point x="464" y="1053"/>
      <point x="416" y="1053" type="curve" smooth="yes"/>
      <point x="363" y="1053"/>
      <point x="336" y="1013"/>
      <point x="336" y="934" type="curve" smooth="yes"/>
      <point x="336" y="805" type="line" smooth="no"/>
      <point x="496" y="805" type="line" smooth="no"/>
      <point x="496" y="689" type="line" smooth="no"/>
      <point x="336" y="689" type="line" smooth="no"/>
      <point x="336" y="116" type="line" smooth="no"/>
      <point x="495" y="116" type="line" smooth="no"/>
      <point x="495" y="0" type="line" smooth="no"/>
      <point x="61" y="0" type="line" smooth="no"/>
      <point x="61" y="116" type="line" smooth="no"/>
      <point x="185" y="116" type="line" smooth="no"/>
      <point x="185" y="689" type="line" smooth="no"/>
      <point x="56" y="689" type="line" smooth="no"/>
      <point x="56" y="805" type="line" smooth="no"/>
      <point x="185" y="805" type="line" smooth="no"/>
    </contour>
  </outline>
</glyph>
<glyph name="g" format="1">
  <advance width="1029"/>
  <unicode hex="0067"/>
  <outline>
    <contour>
      <point x="731" y="571" type="line" smooth="no"/>
      <point x="645" y="653"/>
      <point x="565" y="694"/>
      <point x="481" y="694" type="curve" smooth="yes"/>
      <point x="314" y="694"/>
      <point x="217" y="565"/>
      <point x="217" y="400" type="curve" smooth="yes"/>
      <point x="217" y="237"/>
      <point x="321" y="125"/>
      <point x="486" y="125" type="curve" smooth="yes"/>
      <point x="570" y="125"/>
      <point x="641" y="160"/>
      <point x="731" y="229" type="curve" smooth="no"/>
    </contour>
    <contour>
      <point x="57" y="398" type="curve" smooth="yes"/>
      <point x="57" y="624"/>
      <point x="217" y="820"/>
      <point x="443" y="820" type="curve" smooth="yes"/>
      <point x="556" y="820"/>
      <point x="648" y="783"/>
      <point x="731" y="709" type="curve" smooth="no"/>
      <point x="731" y="805" type="line" smooth="no"/>
      <point x="1032" y="805" type="line" smooth="no"/>
      <point x="1032" y="689" type="line" smooth="no"/>
      <point x="881" y="689" type="line" smooth="no"/>
      <point x="881" y="-3" type="line" smooth="yes"/>
      <point x="881" y="-221"/>
      <point x="701" y="-320"/>
      <point x="469" y="-320" type="curve" smooth="yes"/>
      <point x="353" y="-320"/>
      <point x="258" y="-298"/>
      <point x="184" y="-253" type="curve" smooth="no"/>
      <point x="231" y="-143" type="line" smooth="no"/>
      <point x="300" y="-178"/>
      <point x="377" y="-196"/>
      <point x="461" y="-196" type="curve" smooth="yes"/>
      <point x="598" y="-196"/>
      <point x="731" y="-153"/>
      <point x="731" y="-27" type="curve" smooth="yes"/>
      <point x="731" y="93" type="line" smooth="no"/>
      <point x="666" y="31"/>
      <point x="592" y="0"/>
      <point x="447" y="0" type="curve" smooth="yes"/>
      <point x="224" y="0"/>
      <point x="57" y="182"/>
    </contour>
  </outline>
</glyph>
<glyph name="h" format="1">
  <advance width="1024"/>
  <unicode hex="0068"/>
  <outline>
    <contour>
      <point x="733" y="528" type="line" smooth="yes"/>
      <point x="733" y="639"/>
      <point x="686" y="694"/>
      <point x="592" y="694" type="curve" smooth="yes"/>
      <point x="498" y="694"/>
      <point x="409" y="665"/>
      <point x="322" y="607" type="curve" smooth="no"/>
      <point x="322" y="116" type="line" smooth="no"/>
      <point x="467" y="116" type="line" smooth="no"/>
      <point x="467" y="0" type="line" smooth="no"/>
      <point x="21" y="0" type="line" smooth="no"/>
      <point x="21" y="116" type="line" smooth="no"/>
      <point x="173" y="116" type="line" smooth="no"/>
      <point x="173" y="1037" type="line" smooth="no"/>
      <point x="23" y="1037" type="line" smooth="no"/>
      <point x="23" y="1153" type="line" smooth="no"/>
      <point x="322" y="1153" type="line" smooth="no"/>
      <point x="322" y="726" type="line" smooth="no"/>
      <point x="417" y="789"/>
      <point x="518" y="820"/>
      <point x="626" y="820" type="curve" smooth="yes"/>
      <point x="796" y="820"/>
      <point x="881" y="732"/>
      <point x="881" y="556" type="curve" smooth="yes"/>
      <point x="881" y="116" type="line" smooth="no"/>
      <point x="1025" y="116" type="line" smooth="no"/>
      <point x="1025" y="0" type="line" smooth="no"/>
      <point x="631" y="0" type="line" smooth="no"/>
      <point x="631" y="116" type="line" smooth="no"/>
      <point x="733" y="116" type="line" smooth="no"/>
    </contour>
  </outline>
</glyph>
<glyph name="i" format="1">
  <advance width="494"/>
  <unicode hex="0069"/>
  <outline>
    <contour>
      <point x="60" y="689" type="line" smooth="no"/>
      <point x="60" y="805" type="line" smooth="no"/>
      <point x="344" y="805" type="line" smooth="no"/>
      <point x="344" y="116" type="line" smooth="no"/>
      <point x="480" y="116" type="line" smooth="no"/>
      <point x="480" y="0" type="line" smooth="no"/>
      <point x="60" y="0" type="line" smooth="no"/>
      <point x="60" y="116" type="line" smooth="no"/>
      <point x="195" y="116" type="line" smooth="no"/>
      <point x="195" y="689" type="line" smooth="no"/>
    </contour>
    <contour>
      <point x="177" y="1066" type="curve" smooth="yes"/>
      <point x="177" y="1120"/>
      <point x="215" y="1152"/>
      <point x="279" y="1152" type="curve" smooth="yes"/>
      <point x="320" y="1152"/>
      <point x="360" y="1109"/>
      <point x="360" y="1066" type="curve" smooth="yes"/>
      <point x="360" y="1021"/>
      <point x="320" y="979"/>
      <point x="278" y="979" type="curve" smooth="yes"/>
      <point x="218" y="979"/>
      <point x="177" y="1010"/>
    </contour>
  </outline>
</glyph>
<glyph name="k" format="1">
  <advance width="965"/>
  <unicode hex="006b"/>
  <outline>
    <contour>
      <point x="38" y="0" type="line" smooth="no"/>
      <point x="38" y="116" type="line" smooth="no"/>
      <point x="170" y="116" type="line" smooth="no"/>
      <point x="170" y="1037" type="line" smooth="no"/>
      <point x="17" y="1037" type="line" smooth="no"/>
      <point x="17" y="1153" type="line" smooth="no"/>
      <point x="318" y="1153" type="line" smooth="no"/>
      <point x="318" y="430" type="line" smooth="no"/>
      <point x="640" y="689" type="line" smooth="no"/>
      <point x="508" y="689" type="line" smooth="no"/>
      <point x="508" y="805" type="line" smooth="no"/>
      <point x="955" y="805" type="line" smooth="no"/>
      <point x="955" y="689" type="line" smooth="no"/>
      <point x="816" y="689" type="line" smooth="no"/>
      <point x="491" y="415" type="line" smooth="no"/>
      <point x="823" y="116" type="line" smooth="no"/>
      <point x="963" y="116" type="line" smooth="no"/>
      <point x="963" y="0" type="line" smooth="no"/>
      <point x="542" y="0" type="line" smooth="no"/>
      <point x="542" y="116" type="line" smooth="no"/>
      <point x="638" y="116" type="line" smooth="no"/>
      <point x="318" y="405" type="line" smooth="no"/>
      <point x="318" y="116" type="line" smooth="no"/>
      <point x="423" y="116" type="line" smooth="no"/>
      <point x="423" y="0" type="line" smooth="no"/>
    </contour>
  </outline>
</glyph>
<glyph name="l" format="1">
  <advance width="479"/>
  <unicode hex="006c"/>
  <outline>
    <contour>
      <point x="36" y="0" type="line" smooth="no"/>
      <point x="36" y="116" type="line" smooth="no"/>
      <point x="180" y="116" type="line" smooth="no"/>
      <point x="180" y="1037" type="line" smooth="no"/>
      <point x="31" y="1037" type="line" smooth="no"/>
      <point x="31" y="1153" type="line" smooth="no"/>
      <point x="329" y="1153" type="line" smooth="no"/>
      <point x="329" y="116" type="line" smooth="no"/>
      <point x="478" y="116" type="line" smooth="no"/>
      <point x="478" y="0" type="line" smooth="no"/>
    </contour>
  </outline>
</glyph>
<glyph name="m" format="1">
  <advance width="1553"/>
  <unicode hex="006d"/>
  <outline>
    <contour>
      <point x="598" y="694" type="curve" smooth="yes"/>
      <point x="492" y="694"/>
      <point x="424" y="633"/>
      <point x="358" y="571" type="curve" smooth="no"/>
      <point x="358" y="116" type="line" smooth="no"/>
      <point x="483" y="116" type="line" smooth="no"/>
      <point x="483" y="0" type="line" smooth="no"/>
      <point x="57" y="0" type="line" smooth="no"/>
      <point x="57" y="116" type="line" smooth="no"/>
      <point x="207" y="116" type="line" smooth="no"/>
      <point x="207" y="689" type="line" smooth="no"/>
      <point x="64" y="689" type="line" smooth="no"/>
      <point x="64" y="805" type="line" smooth="no"/>
      <point x="353" y="805" type="line" smooth="no"/>
      <point x="358" y="698" type="line" smooth="no"/>
      <point x="455" y="779"/>
      <point x="549" y="820"/>
      <point x="640" y="820" type="curve" smooth="yes"/>
      <point x="747" y="820"/>
      <point x="820" y="773"/>
      <point x="858" y="680" type="curve" smooth="no"/>
      <point x="968" y="773"/>
      <point x="1065" y="820"/>
      <point x="1149" y="820" type="curve" smooth="yes"/>
      <point x="1312" y="820"/>
      <point x="1396" y="725"/>
      <point x="1396" y="568" type="curve" smooth="yes"/>
      <point x="1396" y="107" type="line" smooth="no"/>
      <point x="1541" y="107" type="line" smooth="no"/>
      <point x="1541" y="0" type="line" smooth="no"/>
      <point x="1136" y="0" type="line" smooth="no"/>
      <point x="1136" y="107" type="line" smooth="no"/>
      <point x="1249" y="107" type="line" smooth="no"/>
      <point x="1249" y="537" type="line" smooth="yes"/>
      <point x="1249" y="642"/>
      <point x="1206" y="694"/>
      <point x="1121" y="694" type="curve" smooth="yes"/>
      <point x="1048" y="694"/>
      <point x="933" y="631"/>
      <point x="879" y="561" type="curve" smooth="no"/>
      <point x="879" y="116" type="line" smooth="no"/>
      <point x="1004" y="116" type="line" smooth="no"/>
      <point x="1004" y="0" type="line" smooth="no"/>
      <point x="615" y="0" type="line" smooth="no"/>
      <point x="615" y="116" type="line" smooth="no"/>
      <point x="727" y="116" type="line" smooth="no"/>
      <point x="727" y="534" type="line" smooth="yes"/>
      <point x="727" y="641"/>
      <point x="684" y="694"/>
    </contour>
  </outline>
</glyph>
<glyph name="n" format="1">
  <advance width="1031"/>
  <unicode hex="006e"/>
  <outline>
    <contour>
      <point x="727" y="507" type="line" smooth="yes"/>
      <point x="727" y="614"/>
      <point x="704" y="694"/>
      <point x="602" y="694" type="curve" smooth="yes"/>
      <point x="525" y="694"/>
      <point x="443" y="653"/>
      <point x="357" y="570" type="curve" smooth="no"/>
      <point x="357" y="116" type="line" smooth="no"/>
      <point x="502" y="116" type="line" smooth="no"/>
      <point x="502" y="0" type="line" smooth="no"/>
      <point x="63" y="0" type="line" smooth="no"/>
      <point x="63" y="116" type="line" smooth="no"/>
      <point x="206" y="116" type="line" smooth="no"/>
      <point x="206" y="689" type="line" smooth="no"/>
      <point x="57" y="689" type="line" smooth="no"/>
      <point x="57" y="805" type="line" smooth="no"/>
      <point x="353" y="805" type="line" smooth="no"/>
      <point x="357" y="701" type="line" smooth="no"/>
      <point x="459" y="780"/>
      <point x="550" y="820"/>
      <point x="630" y="820" type="curve" smooth="yes"/>
      <point x="789" y="820"/>
      <point x="874" y="719"/>
      <point x="875" y="562" type="curve" smooth="no"/>
      <point x="874" y="116" type="line" smooth="no"/>
      <point x="1019" y="116" type="line" smooth="no"/>
      <point x="1019" y="0" type="line" smooth="no"/>
      <point x="617" y="0" type="line" smooth="no"/>
      <point x="617" y="116" type="line" smooth="no"/>
      <point x="727" y="116" type="line" smooth="no"/>
    </contour>
  </outline>
</glyph>
<glyph name="o" format="1">
  <advance width="967"/>
  <unicode hex="006f"/>
  <outline>
    <contour>
      <point x="484" y="820" type="curve" smooth="yes"/>
      <point x="732" y="820"/>
      <point x="910" y="645"/>
      <point x="910" y="402" type="curve" smooth="yes"/>
      <point x="910" y="158"/>
      <point x="730" y="-18"/>
      <point x="482" y="-18" type="curve" smooth="yes"/>
      <point x="233" y="-18"/>
      <point x="57" y="161"/>
      <point x="57" y="406" type="curve" smooth="yes"/>
      <point x="57" y="647"/>
      <point x="239" y="820"/>
    </contour>
    <contour>
      <point x="750" y="401" type="curve" smooth="yes"/>
      <point x="750" y="566"/>
      <point x="646" y="694"/>
      <point x="482" y="694" type="curve" smooth="yes"/>
      <point x="319" y="694"/>
      <point x="216" y="565"/>
      <point x="216" y="401" type="curve" smooth="yes"/>
      <point x="216" y="236"/>
      <point x="320" y="108"/>
      <point x="482" y="107" type="curve" smooth="no"/>
      <point x="645" y="108"/>
      <point x="750" y="235"/>
    </contour>
  </outline>
</glyph>
<glyph name="p" format="1">
  <advance width="1017"/>
  <unicode hex="0070"/>
  <outline>
    <contour>
      <point x="805" y="396" type="curve" smooth="yes"/>
      <point x="805" y="566"/>
      <point x="712" y="694"/>
      <point x="540" y="694" type="curve" smooth="yes"/>
      <point x="453" y="694"/>
      <point x="374" y="653"/>
      <point x="292" y="571" type="curve" smooth="no"/>
      <point x="292" y="211" type="line" smooth="no"/>
      <point x="381" y="142"/>
      <point x="462" y="107"/>
      <point x="547" y="107" type="curve" smooth="yes"/>
      <point x="716" y="107"/>
      <point x="805" y="229"/>
    </contour>
    <contour>
      <point x="292" y="87" type="curve" smooth="no"/>
      <point x="292" y="-179" type="line" smooth="no"/>
      <point x="457" y="-179" type="line" smooth="no"/>
      <point x="457" y="-303" type="line" smooth="no"/>
      <point x="-8" y="-303" type="line" smooth="no"/>
      <point x="-8" y="-179" type="line" smooth="no"/>
      <point x="145" y="-179" type="line" smooth="no"/>
      <point x="145" y="689" type="line" smooth="no"/>
      <point x="4" y="689" type="line" smooth="no"/>
      <point x="4" y="805" type="line" smooth="no"/>
      <point x="284" y="805" type="line" smooth="no"/>
      <point x="292" y="698" type="line" smooth="no"/>
      <point x="370" y="779"/>
      <point x="452" y="820"/>
      <point x="569" y="820" type="curve" smooth="yes"/>
      <point x="804" y="820"/>
      <point x="960" y="635"/>
      <point x="960" y="400" type="curve" smooth="yes"/>
      <point x="960" y="157"/>
      <point x="798" y="-18"/>
      <point x="566" y="-18" type="curve" smooth="yes"/>
      <point x="449" y="-18"/>
      <point x="369" y="17"/>
    </contour>
  </outline>
</glyph>
<glyph name="q" format="1">
  <advance width="1027"/>
  <unicode hex="0071"/>
  <outline>
    <contour>
      <point x="211" y="398" type="curve" smooth="yes"/>
      <point x="211" y="230"/>
      <point x="306" y="107"/>
      <point x="475" y="107" type="curve" smooth="yes"/>
      <point x="560" y="107"/>
      <point x="650" y="143"/>
      <point x="730" y="229" type="curve" smooth="no"/>
      <point x="730" y="564" type="line" smooth="no"/>
      <point x="648" y="651"/>
      <point x="562" y="694"/>
      <point x="473" y="694" type="curve" smooth="yes"/>
      <point x="299" y="694"/>
      <point x="211" y="569"/>
    </contour>
    <contour>
      <point x="57" y="402" type="curve" smooth="yes"/>
      <point x="57" y="638"/>
      <point x="209" y="820"/>
      <point x="446" y="820" type="curve" smooth="yes"/>
      <point x="565" y="820"/>
      <point x="660" y="780"/>
      <point x="730" y="699" type="curve" smooth="no"/>
      <point x="733" y="805" type="line" smooth="no"/>
      <point x="1022" y="805" type="line" smooth="no"/>
      <point x="1022" y="689" type="line" smooth="no"/>
      <point x="880" y="689" type="line" smooth="no"/>
      <point x="880" y="-179" type="line" smooth="no"/>
      <point x="1032" y="-179" type="line" smooth="no"/>
      <point x="1032" y="-303" type="line" smooth="no"/>
      <point x="568" y="-303" type="line" smooth="no"/>
      <point x="568" y="-179" type="line" smooth="no"/>
      <point x="730" y="-179" type="line" smooth="no"/>
      <point x="730" y="90" type="line" smooth="no"/>
      <point x="658" y="15"/>
      <point x="570" y="-18"/>
      <point x="453" y="-18" type="curve" smooth="yes"/>
      <point x="217" y="-18"/>
      <point x="57" y="166"/>
    </contour>
  </outline>
</glyph>
<glyph name="r" format="1">
  <advance width="748"/>
  <unicode hex="0072"/>
  <outline>
    <contour>
      <point x="346" y="630" type="line" smooth="no"/>
      <point x="409" y="760"/>
      <point x="487" y="810"/>
      <point x="637" y="810" type="curve" smooth="yes"/>
      <point x="667" y="810"/>
      <point x="696" y="809"/>
      <point x="729" y="805" type="curve" smooth="no"/>
      <point x="729" y="681" type="line" smooth="no"/>
      <point x="729" y="681"/>
      <point x="651" y="683"/>
      <point x="630" y="683" type="curve" smooth="yes"/>
      <point x="444" y="683"/>
      <point x="377" y="570"/>
      <point x="374" y="380" type="curve" smooth="no"/>
      <point x="374" y="116" type="line" smooth="no"/>
      <point x="550" y="116" type="line" smooth="no"/>
      <point x="550" y="0" type="line" smooth="no"/>
      <point x="63" y="0" type="line" smooth="no"/>
      <point x="63" y="116" type="line" smooth="no"/>
      <point x="224" y="116" type="line" smooth="no"/>
      <point x="224" y="689" type="line" smooth="no"/>
      <point x="57" y="689" type="line" smooth="no"/>
      <point x="57" y="805" type="line" smooth="no"/>
      <point x="346" y="805" type="line" smooth="no"/>
    </contour>
  </outline>
</glyph>
<glyph name="s" format="1">
  <advance width="832"/>
  <unicode hex="0073"/>
  <outline>
    <contour>
      <point x="765" y="228" type="curve" smooth="yes"/>
      <point x="765" y="66"/>
      <point x="625" y="-18"/>
      <point x="455" y="-18" type="curve" smooth="yes"/>
      <point x="361" y="-18"/>
      <point x="270" y="15"/>
      <point x="223" y="70" type="curve" smooth="no"/>
      <point x="223" y="0" type="line" smooth="no"/>
      <point x="90" y="0" type="line" smooth="no"/>
      <point x="90" y="272" type="line" smooth="no"/>
      <point x="223" y="272" type="line" smooth="no"/>
      <point x="223" y="203" type="line" smooth="no"/>
      <point x="255" y="151"/>
      <point x="330" y="100"/>
      <point x="429" y="100" type="curve" smooth="yes"/>
      <point x="551" y="100"/>
      <point x="612" y="139"/>
      <point x="612" y="217" type="curve" smooth="no"/>
      <point x="614" y="302"/>
      <point x="519" y="318"/>
      <point x="423" y="332" type="curve" smooth="yes"/>
      <point x="216" y="362"/>
      <point x="88" y="406"/>
      <point x="88" y="584" type="curve" smooth="yes"/>
      <point x="88" y="732"/>
      <point x="234" y="820"/>
      <point x="377" y="820" type="curve" smooth="yes"/>
      <point x="459" y="820"/>
      <point x="529" y="790"/>
      <point x="590" y="740" type="curve" smooth="no"/>
      <point x="590" y="805" type="line" smooth="no"/>
      <point x="719" y="805" type="line" smooth="no"/>
      <point x="719" y="549" type="line" smooth="no"/>
      <point x="590" y="549" type="line" smooth="no"/>
      <point x="590" y="616" type="line" smooth="no"/>
      <point x="543" y="673"/>
      <point x="476" y="702"/>
      <point x="391" y="702" type="curve" smooth="yes"/>
      <point x="313" y="702"/>
      <point x="229" y="670"/>
      <point x="229" y="602" type="curve" smooth="yes"/>
      <point x="229" y="514"/>
      <point x="292" y="502"/>
      <point x="393" y="486" type="curve" smooth="yes"/>
      <point x="607" y="452"/>
      <point x="765" y="418"/>
    </contour>
  </outline>
</glyph>
<glyph name="t" format="1">
  <advance width="535"/>
  <unicode hex="0074"/>
  <outline>
    <contour>
      <point x="357" y="0" type="line" smooth="yes"/>
      <point x="168" y="0"/>
      <point x="141" y="95"/>
      <point x="141" y="300" type="curve" smooth="yes"/>
      <point x="141" y="689" type="line" smooth="no"/>
      <point x="17" y="689" type="line" smooth="no"/>
      <point x="17" y="805" type="line" smooth="no"/>
      <point x="141" y="805" type="line" smooth="no"/>
      <point x="141" y="1063" type="line" smooth="no"/>
      <point x="292" y="1095" type="line" smooth="no"/>
      <point x="292" y="805" type="line" smooth="no"/>
      <point x="465" y="805" type="line" smooth="no"/>
      <point x="465" y="689" type="line" smooth="no"/>
      <point x="292" y="689" type="line" smooth="no"/>
      <point x="292" y="289" type="line" smooth="yes"/>
      <point x="292" y="175"/>
      <point x="288" y="116"/>
      <point x="377" y="116" type="curve" smooth="yes"/>
      <point x="495" y="116" type="line" smooth="no"/>
      <point x="495" y="0" type="line" smooth="no"/>
    </contour>
  </outline>
</glyph>
<glyph name="u" format="1">
  <advance width="964"/>
  <unicode hex="0075"/>
  <outline>
    <contour>
      <point x="416" y="107" type="curve" smooth="yes"/>
      <point x="506" y="107"/>
      <point x="587" y="155"/>
      <point x="660" y="250" type="curve" smooth="no"/>
      <point x="660" y="689" type="line" smooth="no"/>
      <point x="515" y="689" type="line" smooth="no"/>
      <point x="515" y="805" type="line" smooth="no"/>
      <point x="811" y="805" type="line" smooth="no"/>
      <point x="811" y="116" type="line" smooth="no"/>
      <point x="957" y="116" type="line" smooth="no"/>
      <point x="957" y="0" type="line" smooth="no"/>
      <point x="665" y="0" type="line" smooth="no"/>
      <point x="660" y="100" type="line" smooth="no"/>
      <point x="577" y="21"/>
      <point x="487" y="-18"/>
      <point x="388" y="-18" type="curve" smooth="yes"/>
      <point x="222" y="-18"/>
      <point x="139" y="75"/>
      <point x="139" y="261" type="curve" smooth="yes"/>
      <point x="139" y="689" type="line" smooth="no"/>
      <point x="19" y="689" type="line" smooth="no"/>
      <point x="19" y="805" type="line" smooth="no"/>
      <point x="291" y="805" type="line" smooth="no"/>
      <point x="291" y="268" type="line" smooth="yes"/>
      <point x="291" y="161"/>
      <point x="333" y="107"/>
    </contour>
  </outline>
</glyph>
<glyph name="w" format="1">
  <advance width="1386"/>
  <unicode hex="0077"/>
  <outline>
    <contour>
      <point x="97" y="689" type="line" smooth="no"/>
      <point x="-7" y="689" type="line" smooth="no"/>
      <point x="-7" y="805" type="line" smooth="no"/>
      <point x="347" y="805" type="line" smooth="no"/>
      <point x="347" y="689" type="line" smooth="no"/>
      <point x="237" y="689" type="line" smooth="no"/>
      <point x="404" y="157" type="line" smooth="no"/>
      <point x="581" y="689" type="line" smooth="no"/>
      <point x="486" y="689" type="line" smooth="no"/>
      <point x="486" y="805" type="line" smooth="no"/>
      <point x="884" y="805" type="line" smooth="no"/>
      <point x="884" y="689" type="line" smooth="no"/>
      <point x="789" y="689" type="line" smooth="no"/>
      <point x="970" y="146" type="line" smooth="no"/>
      <point x="1137" y="689" type="line" smooth="no"/>
      <point x="1017" y="689" type="line" smooth="no"/>
      <point x="1017" y="805" type="line" smooth="no"/>
      <point x="1393" y="805" type="line" smooth="no"/>
      <point x="1393" y="689" type="line" smooth="no"/>
      <point x="1271" y="689" type="line" smooth="no"/>
      <point x="1037" y="0" type="line" smooth="no"/>
      <point x="895" y="0" type="line" smooth="no"/>
      <point x="689" y="622" type="line" smooth="no"/>
      <point x="478" y="0" type="line" smooth="no"/>
      <point x="335" y="0" type="line" smooth="no"/>
    </contour>
  </outline>
</glyph>
<glyph name="x" format="1">
  <advance width="959"/>
  <unicode hex="0078"/>
  <outline>
    <contour>
      <point x="23" y="0" type="line" smooth="no"/>
      <point x="23" y="116" type="line" smooth="no"/>
      <point x="149" y="116" type="line" smooth="no"/>
      <point x="404" y="413" type="line" smooth="no"/>
      <point x="161" y="689" type="line" smooth="no"/>
      <point x="42" y="689" type="line" smooth="no"/>
      <point x="42" y="805" type="line" smooth="no"/>
      <point x="432" y="805" type="line" smooth="no"/>
      <point x="432" y="689" type="line" smooth="no"/>
      <point x="317" y="689" type="line" smooth="no"/>
      <point x="481" y="500" type="line" smooth="no"/>
      <point x="639" y="689" type="line" smooth="no"/>
      <point x="542" y="689" type="line" smooth="no"/>
      <point x="542" y="805" type="line" smooth="no"/>
      <point x="932" y="805" type="line" smooth="no"/>
      <point x="932" y="689" type="line" smooth="no"/>
      <point x="795" y="689" type="line" smooth="no"/>
      <point x="560" y="413" type="line" smooth="no"/>
      <point x="820" y="116" type="line" smooth="no"/>
      <point x="936" y="116" type="line" smooth="no"/>
      <point x="936" y="0" type="line" smooth="no"/>
      <point x="540" y="0" type="line" smooth="no"/>
      <point x="540" y="116" type="line" smooth="no"/>
      <point x="667" y="116" type="line" smooth="no"/>
      <point x="481" y="327" type="line" smooth="no"/>
      <point x="308" y="116" type="line" smooth="no"/>
      <point x="424" y="116" type="line" smooth="no"/>
      <point x="424" y="0" type="line" smooth="no"/>
    </contour>
  </outline>
</glyph>
<glyph name="y" format="1">
  <advance width="958"/>
  <unicode hex="0079"/>
  <outline>
    <contour>
      <point x="665" y="689" type="line" smooth="no"/>
      <point x="550" y="689" type="line" smooth="no"/>
      <point x="550" y="805" type="line" smooth="no"/>
      <point x="963" y="805" type="line" smooth="no"/>
      <point x="963" y="689" type="line" smooth="no"/>
      <point x="834" y="689" type="line" smooth="no"/>
      <point x="606" y="36" type="line" smooth="no"/>
      <point x="535" y="-179"/>
      <point x="474" y="-320"/>
      <point x="232" y="-320" type="curve" smooth="yes"/>
      <point x="146" y="-320" type="line" smooth="no"/>
      <point x="146" y="-187" type="line" smooth="no"/>
      <point x="220" y="-187" type="line" smooth="yes"/>
      <point x="352" y="-187"/>
      <point x="383" y="-149"/>
      <point x="423" y="-42" type="curve" smooth="yes"/>
      <point x="455" y="43" type="line" smooth="no"/>
      <point x="373" y="43" type="line" smooth="no"/>
      <point x="109" y="689" type="line" smooth="no"/>
      <point x="-16" y="689" type="line" smooth="no"/>
      <point x="-16" y="805" type="line" smooth="no"/>
      <point x="390" y="805" type="line" smooth="no"/>
      <point x="390" y="689" type="line" smooth="no"/>
      <point x="266" y="689" type="line" smooth="no"/>
      <point x="485" y="140" type="line" smooth="no"/>
    </contour>
  </outline>
</glyph>
<glyph name="z" format="1">
  <advance width="821"/>
  <unicode hex="007a"/>
  <outline>
    <contour>
      <point x="68" y="0" type="line" smooth="no"/>
      <point x="68" y="116" type="line" smooth="no"/>
      <point x="561" y="689" type="line" smooth="no"/>
      <point x="224" y="689" type="line" smooth="no"/>
      <point x="224" y="537" type="line" smooth="no"/>
      <point x="103" y="537" type="line" smooth="no"/>
      <point x="103" y="805" type="line" smooth="no"/>
      <point x="743" y="805" type="line" smooth="no"/>
      <point x="743" y="683" type="line" smooth="no"/>
      <point x="248" y="116" type="line" smooth="no"/>
      <point x="640" y="116" type="line" smooth="no"/>
      <point x="640" y="276" type="line" smooth="no"/>
      <point x="768" y="276" type="line" smooth="no"/>
      <point x="768" y="0" type="line" smooth="no"/>
    </contour>
  </outline>
</glyph>
<glyph name="bar" format="1">
  <advance width="404"/>
  <unicode hex="007c"/>
  <outline>
    <contour>
      <point x="141" y="1153" type="line" smooth="no"/>
      <point x="263" y="1153" type="line" smooth="no"/>
      <point x="263" y="-96" type="line" smooth="no"/>
      <point x="141" y="-96" type="line" smooth="no"/>
    </contour>
  </outline>
</glyph>
<glyph name="exclamdown" format="1">
  <advance width="466"/>
  <unicode hex="00a1"/>
  <outline>
    <contour>
      <point x="127" y="959" type="line" smooth="no"/>
      <point x="127" y="1171" type="line" smooth="no"/>
      <point x="339" y="1171" type="line" smooth="no"/>
      <point x="339" y="959" type="line" smooth="no"/>
    </contour>
    <contour>
      <point x="147" y="350" type="line" smooth="no"/>
      <point x="189" y="847" type="line" smooth="no"/>
      <point x="277" y="847" type="line" smooth="no"/>
      <point x="319" y="350" type="line" smooth="no"/>
      <point x="319" y="0" type="line" smooth="no"/>
      <point x="147" y="0" type="line" smooth="no"/>
    </contour>
  </outline>
</glyph>
<glyph name="sterling" format="1">
  <advance width="993"/>
  <unicode hex="00a3"/>
  <outline>
    <contour>
      <point x="158" y="154" type="curve" smooth="yes"/>
      <point x="158" y="100"/>
      <point x="189" y="65"/>
      <point x="249" y="65" type="curve" smooth="yes"/>
      <point x="254" y="65" type="line" smooth="yes"/>
      <point x="294" y="65"/>
      <point x="334" y="98"/>
      <point x="373" y="163" type="curve" smooth="no"/>
      <point x="312" y="213"/>
      <point x="265" y="241"/>
      <point x="234" y="247" type="curve" smooth="no"/>
      <point x="187" y="247"/>
      <point x="158" y="202"/>
    </contour>
    <contour>
      <point x="701" y="-18" type="curve" smooth="yes"/>
      <point x="608" y="-18"/>
      <point x="515" y="46"/>
      <point x="444" y="98" type="curve" smooth="no"/>
      <point x="393" y="21"/>
      <point x="332" y="-18"/>
      <point x="261" y="-18" type="curve" smooth="yes"/>
      <point x="139" y="-18"/>
      <point x="51" y="40"/>
      <point x="51" y="151" type="curve" smooth="yes"/>
      <point x="51" y="253"/>
      <point x="139" y="338"/>
      <point x="246" y="338" type="curve" smooth="yes"/>
      <point x="304" y="338"/>
      <point x="361" y="312"/>
      <point x="416" y="261" type="curve" smooth="no"/>
      <point x="421" y="279"/>
      <point x="423" y="298"/>
      <point x="423" y="319" type="curve" smooth="yes"/>
      <point x="423" y="376"/>
      <point x="398" y="446"/>
      <point x="349" y="529" type="curve" smooth="no"/>
      <point x="132" y="529" type="line" smooth="no"/>
      <point x="132" y="645" type="line" smooth="no"/>
      <point x="287" y="645" type="line" smooth="no"/>
      <point x="248" y="726"/>
      <point x="229" y="794"/>
      <point x="229" y="850" type="curve" smooth="yes"/>
      <point x="229" y="1057"/>
      <point x="362" y="1171"/>
      <point x="569" y="1171" type="curve" smooth="yes"/>
      <point x="572" y="1171" type="line" smooth="yes"/>
      <point x="768" y="1171"/>
      <point x="884" y="1065"/>
      <point x="887" y="863" type="curve" smooth="no"/>
      <point x="752" y="863" type="line" smooth="no"/>
      <point x="752" y="989"/>
      <point x="694" y="1052"/>
      <point x="579" y="1052" type="curve" smooth="yes"/>
      <point x="461" y="1052"/>
      <point x="371" y="996"/>
      <point x="371" y="886" type="curve" smooth="yes"/>
      <point x="371" y="781"/>
      <point x="412" y="717"/>
      <point x="450" y="645" type="curve" smooth="no"/>
      <point x="818" y="645" type="line" smooth="no"/>
      <point x="818" y="529" type="line" smooth="no"/>
      <point x="505" y="529" type="line" smooth="no"/>
      <point x="528" y="473"/>
      <point x="539" y="419"/>
      <point x="539" y="366" type="curve" smooth="yes"/>
      <point x="539" y="313"/>
      <point x="526" y="260"/>
      <point x="499" y="207" type="curve" smooth="no"/>
      <point x="552" y="175"/>
      <point x="641" y="122"/>
      <point x="690" y="122" type="curve" smooth="yes"/>
      <point x="812" y="122"/>
      <point x="833" y="176"/>
      <point x="841" y="290" type="curve" smooth="no"/>
      <point x="934" y="290" type="line" smooth="no"/>
      <point x="934" y="94"/>
      <point x="890" y="-18"/>
    </contour>
  </outline>
</glyph>
<glyph name="yen" format="1">
  <advance width="1130"/>
  <unicode hex="00a5"/>
  <outline>
    <contour>
      <point x="327" y="0" type="line" smooth="no"/>
      <point x="327" y="116" type="line" smooth="no"/>
      <point x="486" y="116" type="line" smooth="no"/>
      <point x="486" y="297" type="line" smooth="no"/>
      <point x="249" y="297" type="line" smooth="no"/>
      <point x="249" y="414" type="line" smooth="no"/>
      <point x="486" y="414" type="line" smooth="no"/>
      <point x="486" y="503" type="line" smooth="no"/>
      <point x="249" y="503" type="line" smooth="no"/>
      <point x="249" y="622" type="line" smooth="no"/>
      <point x="421" y="622" type="line" smooth="no"/>
      <point x="128" y="1037" type="line" smooth="no"/>
      <point x="-18" y="1037" type="line" smooth="no"/>
      <point x="-18" y="1153" type="line" smooth="no"/>
      <point x="454" y="1153" type="line" smooth="no"/>
      <point x="454" y="1037" type="line" smooth="no"/>
      <point x="304" y="1037" type="line" smooth="no"/>
      <point x="578" y="648" type="line" smooth="no"/>
      <point x="835" y="1037" type="line" smooth="no"/>
      <point x="685" y="1037" type="line" smooth="no"/>
      <point x="685" y="1153" type="line" smooth="no"/>
      <point x="1145" y="1153" type="line" smooth="no"/>
      <point x="1145" y="1037" type="line" smooth="no"/>
      <point x="989" y="1037" type="line" smooth="no"/>
      <point x="708" y="622" type="line" smooth="no"/>
      <point x="885" y="622" type="line" smooth="no"/>
      <point x="885" y="503" type="line" smooth="no"/>
      <point x="646" y="503" type="line" smooth="no"/>
      <point x="646" y="414" type="line" smooth="no"/>
      <point x="885" y="414" type="line" smooth="no"/>
      <point x="885" y="297" type="line" smooth="no"/>
      <point x="646" y="297" type="line" smooth="no"/>
      <point x="646" y="116" type="line" smooth="no"/>
      <point x="810" y="116" type="line" smooth="no"/>
      <point x="810" y="0" type="line" smooth="no"/>
    </contour>
  </outline>
</glyph>
<glyph name="brokenbar" format="1">
  <advance width="404"/>
  <unicode hex="00a6"/>
  <outline>
    <contour>
      <point x="263" y="446" type="line" smooth="no"/>
      <point x="263" y="-18" type="line" smooth="no"/>
      <point x="141" y="-18" type="line" smooth="no"/>
      <point x="141" y="446" type="line" smooth="no"/>
    </contour>
    <contour>
      <point x="263" y="1153" type="line" smooth="no"/>
      <point x="263" y="689" type="line" smooth="no"/>
      <point x="141" y="689" type="line" smooth="no"/>
      <point x="141" y="1153" type="line" smooth="no"/>
    </contour>
  </outline>
</glyph>
<glyph name="dieresis" format="1">
  <advance width="572"/>
  <unicode hex="00a8"/>
  <outline>
    <contour>
      <point x="212" y="1101" type="line" smooth="no"/>
      <point x="212" y="948" type="line" smooth="no"/>
      <point x="58" y="948" type="line" smooth="no"/>
      <point x="58" y="1101" type="line" smooth="no"/>
    </contour>
    <contour>
      <point x="523" y="1101" type="line" smooth="no"/>
      <point x="523" y="948" type="line" smooth="no"/>
      <point x="371" y="948" type="line" smooth="no"/>
      <point x="371" y="1101" type="line" smooth="no"/>
    </contour>
  </outline>
</glyph>
<glyph name="logicalnot" format="1">
  <advance width="1113"/>
  <unicode hex="00ac"/>
  <outline>
    <contour>
      <point x="993" y="842" type="line" smooth="no"/>
      <point x="993" y="304" type="line" smooth="no"/>
      <point x="876" y="304" type="line" smooth="no"/>
      <point x="876" y="724" type="line" smooth="no"/>
      <point x="56" y="724" type="line" smooth="no"/>
      <point x="56" y="842" type="line" smooth="no"/>
    </contour>
  </outline>
</glyph>
<glyph name="macron" format="1">
  <advance width="593"/>
  <unicode hex="00af"/>
  <outline>
    <contour>
      <point x="101" y="1171" type="line" smooth="no"/>
      <point x="477" y="1171" type="line" smooth="no"/>
      <point x="477" y="1063" type="line" smooth="no"/>
      <point x="101" y="1063" type="line" smooth="no"/>
    </contour>
  </outline>
</glyph>
<glyph name="plusminus" format="1">
  <advance width="1145"/>
  <unicode hex="00b1"/>
  <outline>
    <contour>
      <point x="1012" y="0" type="line" smooth="no"/>
      <point x="133" y="0" type="line" smooth="no"/>
      <point x="133" y="121" type="line" smooth="no"/>
      <point x="1012" y="121" type="line" smooth="no"/>
    </contour>
    <contour>
      <point x="633" y="672" type="line" smooth="no"/>
      <point x="633" y="293" type="line" smooth="no"/>
      <point x="510" y="293" type="line" smooth="no"/>
      <point x="510" y="672" type="line" smooth="no"/>
      <point x="133" y="672" type="line" smooth="no"/>
      <point x="133" y="793" type="line" smooth="no"/>
      <point x="510" y="793" type="line" smooth="no"/>
      <point x="510" y="1171" type="line" smooth="no"/>
      <point x="633" y="1171" type="line" smooth="no"/>
      <point x="633" y="793" type="line" smooth="no"/>
      <point x="1012" y="793" type="line" smooth="no"/>
      <point x="1012" y="672" type="line" smooth="no"/>
    </contour>
  </outline>
</glyph>
<glyph name="acute" format="1">
  <advance width="562"/>
  <unicode hex="00b4"/>
  <outline>
    <contour>
      <point x="165" y="914" type="line" smooth="no"/>
      <point x="264" y="1171" type="line" smooth="no"/>
      <point x="471" y="1171" type="line" smooth="no"/>
      <point x="284" y="914" type="line" smooth="no"/>
    </contour>
  </outline>
</glyph>
<glyph name="uni00B5" format="1">
  <advance width="925"/>
  <unicode hex="00b5"/>
  <unicode hex="03bc"/>
  <outline>
    <contour>
      <point x="304" y="268" type="line" smooth="yes"/>
      <point x="304" y="169"/>
      <point x="333" y="107"/>
      <point x="429" y="107" type="curve" smooth="yes"/>
      <point x="519" y="107"/>
      <point x="600" y="155"/>
      <point x="673" y="250" type="curve" smooth="no"/>
      <point x="673" y="689" type="line" smooth="no"/>
      <point x="528" y="689" type="line" smooth="no"/>
      <point x="528" y="805" type="line" smooth="no"/>
      <point x="824" y="805" type="line" smooth="no"/>
      <point x="824" y="116" type="line" smooth="no"/>
      <point x="970" y="116" type="line" smooth="no"/>
      <point x="970" y="0" type="line" smooth="no"/>
      <point x="678" y="0" type="line" smooth="no"/>
      <point x="673" y="100" type="line" smooth="no"/>
      <point x="542" y="25"/>
      <point x="474" y="-27"/>
      <point x="395" y="-27" type="curve" smooth="yes"/>
      <point x="361" y="-27"/>
      <point x="325" y="-17"/>
      <point x="281" y="4" type="curve" smooth="no"/>
      <point x="281" y="-368" type="line" smooth="no"/>
      <point x="152" y="-368" type="line" smooth="no"/>
      <point x="152" y="689" type="line" smooth="no"/>
      <point x="32" y="689" type="line" smooth="no"/>
      <point x="32" y="805" type="line" smooth="no"/>
      <point x="304" y="805" type="line" smooth="no"/>
    </contour>
  </outline>
</glyph>
<glyph name="paragraph" format="1">
  <advance width="1096"/>
  <unicode hex="00b6"/>
  <outline>
    <contour>
      <point x="50" y="812" type="curve" smooth="yes"/>
      <point x="50" y="1036"/>
      <point x="214" y="1171"/>
      <point x="451" y="1171" type="curve" smooth="yes"/>
      <point x="1020" y="1171" type="line" smooth="no"/>
      <point x="1020" y="1037" type="line" smooth="no"/>
      <point x="882" y="1037" type="line" smooth="no"/>
      <point x="882" y="-320" type="line" smooth="no"/>
      <point x="747" y="-320" type="line" smooth="no"/>
      <point x="747" y="1037" type="line" smooth="no"/>
      <point x="546" y="1037" type="line" smooth="no"/>
      <point x="546" y="-320" type="line" smooth="no"/>
      <point x="411" y="-320" type="line" smooth="no"/>
      <point x="411" y="453" type="line" smooth="no"/>
      <point x="198" y="459"/>
      <point x="50" y="599"/>
    </contour>
  </outline>
</glyph>
<glyph name="uni00B9" format="1">
  <advance width="476"/>
  <unicode hex="00b9"/>
  <outline>
    <contour>
      <point x="63" y="392" type="line" smooth="no"/>
      <point x="186" y="392" type="line" smooth="no"/>
      <point x="186" y="1059" type="line" smooth="no"/>
      <point x="57" y="1059" type="line" smooth="no"/>
      <point x="57" y="1153" type="line" smooth="no"/>
      <point x="297" y="1153" type="line" smooth="no"/>
      <point x="297" y="392" type="line" smooth="no"/>
      <point x="411" y="392" type="line" smooth="no"/>
      <point x="411" y="299" type="line" smooth="no"/>
      <point x="63" y="299" type="line" smooth="no"/>
    </contour>
  </outline>
</glyph>
<glyph name="onequarter" format="1">
  <advance width="1665"/>
  <unicode hex="00bc"/>
  <outline>
    <contour>
      <point x="1313" y="352" type="line" smooth="no"/>
      <point x="1313" y="765" type="line" smooth="no"/>
      <point x="1059" y="352" type="line" smooth="no"/>
    </contour>
    <contour>
      <point x="1548" y="94" type="line" smooth="no"/>
      <point x="1548" y="0" type="line" smooth="no"/>
      <point x="1181" y="0" type="line" smooth="no"/>
      <point x="1181" y="94" type="line" smooth="no"/>
      <point x="1313" y="94" type="line" smooth="no"/>
      <point x="1313" y="254" type="line" smooth="no"/>
      <point x="942" y="254" type="line" smooth="no"/>
      <point x="942" y="352" type="line" smooth="no"/>
      <point x="1316" y="931" type="line" smooth="no"/>
      <point x="1428" y="931" type="line" smooth="no"/>
      <point x="1428" y="352" type="line" smooth="no"/>
      <point x="1581" y="352" type="line" smooth="no"/>
      <point x="1581" y="254" type="line" smooth="no"/>
      <point x="1428" y="254" type="line" smooth="no"/>
      <point x="1428" y="94" type="line" smooth="no"/>
    </contour>
    <contour>
      <point x="63" y="392" type="line" smooth="no"/>
      <point x="186" y="392" type="line" smooth="no"/>
      <point x="186" y="1059" type="line" smooth="no"/>
      <point x="57" y="1059" type="line" smooth="no"/>
      <point x="57" y="1153" type="line" smooth="no"/>
      <point x="297" y="1153" type="line" smooth="no"/>
      <point x="297" y="392" type="line" smooth="no"/>
      <point x="411" y="392" type="line" smooth="no"/>
      <point x="411" y="299" type="line" smooth="no"/>
      <point x="63" y="299" type="line" smooth="no"/>
    </contour>
    <contour>
      <point x="915" y="1170" type="line" smooth="no"/>
      <point x="1004" y="1170" type="line" smooth="no"/>
      <point x="590" y="0" type="line" smooth="no"/>
      <point x="500" y="0" type="line" smooth="no"/>
    </contour>
  </outline>
</glyph>
<glyph name="AE" format="1">
  <advance width="1733"/>
  <unicode hex="00c6"/>
  <outline>
    <contour>
      <point x="825" y="545" type="line" smooth="no"/>
      <point x="707" y="1037" type="line" smooth="no"/>
      <point x="639" y="1037" type="line" smooth="no"/>
      <point x="442" y="545" type="line" smooth="no"/>
    </contour>
    <contour>
      <point x="1563" y="832" type="line" smooth="no"/>
      <point x="1431" y="832" type="line" smooth="no"/>
      <point x="1380" y="1037" type="line" smooth="no"/>
      <point x="867" y="1037" type="line" smooth="no"/>
      <point x="958" y="655" type="line" smooth="no"/>
      <point x="1320" y="655" type="line" smooth="no"/>
      <point x="1296" y="769" type="line" smooth="no"/>
      <point x="1393" y="769" type="line" smooth="no"/>
      <point x="1478" y="410" type="line" smooth="no"/>
      <point x="1380" y="410" type="line" smooth="no"/>
      <point x="1341" y="548" type="line" smooth="no"/>
      <point x="982" y="548" type="line" smooth="no"/>
      <point x="1089" y="116" type="line" smooth="no"/>
      <point x="1580" y="116" type="line" smooth="no"/>
      <point x="1528" y="328" type="line" smooth="no"/>
      <point x="1657" y="328" type="line" smooth="no"/>
      <point x="1735" y="0" type="line" smooth="no"/>
      <point x="744" y="0" type="line" smooth="no"/>
      <point x="756" y="116" type="line" smooth="no"/>
      <point x="928" y="116" type="line" smooth="no"/>
      <point x="854" y="424" type="line" smooth="no"/>
      <point x="393" y="424" type="line" smooth="no"/>
      <point x="287" y="116" type="line" smooth="no"/>
      <point x="441" y="116" type="line" smooth="no"/>
      <point x="430" y="0" type="line" smooth="no"/>
      <point x="-23" y="0" type="line" smooth="no"/>
      <point x="-12" y="116" type="line" smooth="no"/>
      <point x="121" y="116" type="line" smooth="no"/>
      <point x="496" y="1037" type="line" smooth="no"/>
      <point x="394" y="1037" type="line" smooth="no"/>
      <point x="410" y="1153" type="line" smooth="no"/>
      <point x="1487" y="1153" type="line" smooth="no"/>
    </contour>
  </outline>
</glyph>
<glyph name="Eth" format="1">
  <advance width="1271"/>
  <unicode hex="00d0"/>
  <unicode hex="0110"/>
  <outline>
    <contour>
      <point x="625" y="116" type="line" smooth="yes"/>
      <point x="900" y="116"/>
      <point x="1034" y="308"/>
      <point x="1034" y="581" type="curve" smooth="yes"/>
      <point x="1034" y="865"/>
      <point x="897" y="1037"/>
      <point x="609" y="1037" type="curve" smooth="yes"/>
      <point x="380" y="1037" type="line" smooth="no"/>
      <point x="380" y="650" type="line" smooth="no"/>
      <point x="578" y="650" type="line" smooth="no"/>
      <point x="578" y="506" type="line" smooth="no"/>
      <point x="380" y="506" type="line" smooth="no"/>
      <point x="380" y="116" type="line" smooth="no"/>
    </contour>
    <contour>
      <point x="613" y="1153" type="line" smooth="yes"/>
      <point x="975" y="1153"/>
      <point x="1199" y="963"/>
      <point x="1199" y="596" type="curve" smooth="yes"/>
      <point x="1199" y="199"/>
      <point x="999" y="0"/>
      <point x="599" y="0" type="curve" smooth="yes"/>
      <point x="59" y="0" type="line" smooth="no"/>
      <point x="59" y="116" type="line" smooth="no"/>
      <point x="218" y="116" type="line" smooth="no"/>
      <point x="218" y="506" type="line" smooth="no"/>
      <point x="61" y="506" type="line" smooth="no"/>
      <point x="61" y="650" type="line" smooth="no"/>
      <point x="218" y="650" type="line" smooth="no"/>
      <point x="218" y="1037" type="line" smooth="no"/>
      <point x="59" y="1037" type="line" smooth="no"/>
      <point x="59" y="1153" type="line" smooth="no"/>
    </contour>
  </outline>
</glyph>
<glyph name="multiply" format="1">
  <advance width="929"/>
  <unicode hex="00d7"/>
  <outline>
    <contour>
      <point x="390" y="434" type="line" smooth="no"/>
      <point x="180" y="644" type="line" smooth="no"/>
      <point x="263" y="727" type="line" smooth="no"/>
      <point x="473" y="517" type="line" smooth="no"/>
      <point x="684" y="727" type="line" smooth="no"/>
      <point x="767" y="644" type="line" smooth="no"/>
      <point x="556" y="434" type="line" smooth="no"/>
      <point x="767" y="225" type="line" smooth="no"/>
      <point x="683" y="143" type="line" smooth="no"/>
      <point x="473" y="352" type="line" smooth="no"/>
      <point x="264" y="143" type="line" smooth="no"/>
      <point x="180" y="225" type="line" smooth="no"/>
    </contour>
  </outline>
</glyph>
<glyph name="Thorn" format="1">
  <advance width="1030"/>
  <unicode hex="00de"/>
  <outline>
    <contour>
      <point x="827" y="583" type="curve" smooth="no"/>
      <point x="827" y="728"/>
      <point x="746" y="802"/>
      <point x="601" y="802" type="curve" smooth="yes"/>
      <point x="374" y="802" type="line" smooth="no"/>
      <point x="374" y="373" type="line" smooth="no"/>
      <point x="552" y="373" type="line" smooth="yes"/>
      <point x="738" y="373"/>
      <point x="824" y="435"/>
    </contour>
    <contour>
      <point x="992" y="594" type="curve" smooth="yes"/>
      <point x="992" y="320"/>
      <point x="825" y="248"/>
      <point x="522" y="248" type="curve" smooth="yes"/>
      <point x="376" y="248" type="line" smooth="no"/>
      <point x="376" y="116" type="line" smooth="no"/>
      <point x="534" y="116" type="line" smooth="no"/>
      <point x="534" y="0" type="line" smooth="no"/>
      <point x="63" y="0" type="line" smooth="no"/>
      <point x="63" y="116" type="line" smooth="no"/>
      <point x="214" y="116" type="line" smooth="no"/>
      <point x="214" y="1037" type="line" smooth="no"/>
      <point x="63" y="1037" type="line" smooth="no"/>
      <point x="63" y="1153" type="line" smooth="no"/>
      <point x="534" y="1153" type="line" smooth="no"/>
      <point x="534" y="1038" type="line" smooth="no"/>
      <point x="374" y="1038" type="line" smooth="no"/>
      <point x="374" y="929" type="line" smooth="no"/>
      <point x="596" y="929" type="line" smooth="no"/>
      <point x="825" y="930"/>
      <point x="992" y="817"/>
    </contour>
  </outline>
</glyph>
<glyph name="divide" format="1">
  <advance width="1164"/>
  <unicode hex="00f7"/>
  <outline>
    <contour>
      <point x="501" y="275" type="line" smooth="no"/>
      <point x="654" y="275" type="line" smooth="no"/>
      <point x="654" y="121" type="line" smooth="no"/>
      <point x="501" y="121" type="line" smooth="no"/>
    </contour>
    <contour>
      <point x="501" y="944" type="line" smooth="no"/>
      <point x="654" y="944" type="line" smooth="no"/>
      <point x="654" y="792" type="line" smooth="no"/>
      <point x="501" y="792" type="line" smooth="no"/>
    </contour>
    <contour>
      <point x="931" y="593" type="line" smooth="no"/>
      <point x="931" y="475" type="line" smooth="no"/>
      <point x="220" y="475" type="line" smooth="no"/>
      <point x="220" y="593" type="line" smooth="no"/>
    </contour>
  </outline>
</glyph>
<glyph name="kgreenlandic" format="1">
  <advance width="995"/>
  <unicode hex="0138"/>
  <outline>
    <contour>
      <point x="20" y="116" type="line" smooth="no"/>
      <point x="173" y="116" type="line" smooth="no"/>
      <point x="173" y="689" type="line" smooth="no"/>
      <point x="20" y="689" type="line" smooth="no"/>
      <point x="20" y="805" type="line" smooth="no"/>
      <point x="321" y="805" type="line" smooth="no"/>
      <point x="321" y="420" type="line" smooth="no"/>
      <point x="650" y="689" type="line" smooth="no"/>
      <point x="511" y="689" type="line" smooth="no"/>
      <point x="511" y="805" type="line" smooth="no"/>
      <point x="958" y="805" type="line" smooth="no"/>
      <point x="958" y="689" type="line" smooth="no"/>
      <point x="826" y="689" type="line" smooth="no"/>
      <point x="494" y="405" type="line" smooth="no"/>
      <point x="836" y="116" type="line" smooth="no"/>
      <point x="966" y="116" type="line" smooth="no"/>
      <point x="966" y="0" type="line" smooth="no"/>
      <point x="545" y="0" type="line" smooth="no"/>
      <point x="545" y="116" type="line" smooth="no"/>
      <point x="651" y="116" type="line" smooth="no"/>
      <point x="321" y="395" type="line" smooth="no"/>
      <point x="321" y="116" type="line" smooth="no"/>
      <point x="426" y="116" type="line" smooth="no"/>
      <point x="426" y="0" type="line" smooth="no"/>
      <point x="20" y="0" type="line" smooth="no"/>
    </contour>
  </outline>
</glyph>
<glyph name="Lslash" format="1">
  <advance width="984"/>
  <unicode hex="0141"/>
  <outline>
    <contour>
      <point x="59" y="0" type="line" smooth="no"/>
      <point x="59" y="116" type="line" smooth="no"/>
      <point x="217" y="116" type="line" smooth="no"/>
      <point x="217" y="512" type="line" smooth="no"/>
      <point x="60" y="450" type="line" smooth="no"/>
      <point x="60" y="579" type="line" smooth="no"/>
      <point x="217" y="641" type="line" smooth="no"/>
      <point x="217" y="1037" type="line" smooth="no"/>
      <point x="59" y="1037" type="line" smooth="no"/>
      <point x="59" y="1153" type="line" smooth="no"/>
      <point x="533" y="1153" type="line" smooth="no"/>
      <point x="533" y="1037" type="line" smooth="no"/>
      <point x="378" y="1037" type="line" smooth="no"/>
      <point x="378" y="705" type="line" smooth="no"/>
      <point x="627" y="805" type="line" smooth="no"/>
      <point x="627" y="676" type="line" smooth="no"/>
      <point x="378" y="576" type="line" smooth="no"/>
      <point x="378" y="116" type="line" smooth="no"/>
      <point x="788" y="116" type="line" smooth="no"/>
      <point x="788" y="452" type="line" smooth="no"/>
      <point x="933" y="452" type="line" smooth="no"/>
      <point x="933" y="0" type="line" smooth="no"/>
    </contour>
  </outline>
</glyph>
<glyph name="lslash" format="1">
  <advance width="487"/>
  <unicode hex="0142"/>
  <outline>
    <contour>
      <point x="21" y="0" type="line" smooth="no"/>
      <point x="21" y="116" type="line" smooth="no"/>
      <point x="173" y="116" type="line" smooth="no"/>
      <point x="173" y="501" type="line" smooth="no"/>
      <point x="36" y="450" type="line" smooth="no"/>
      <point x="36" y="579" type="line" smooth="no"/>
      <point x="173" y="632" type="line" smooth="no"/>
      <point x="173" y="1037" type="line" smooth="no"/>
      <point x="24" y="1037" type="line" smooth="no"/>
      <point x="24" y="1153" type="line" smooth="no"/>
      <point x="322" y="1153" type="line" smooth="no"/>
      <point x="322" y="690" type="line" smooth="no"/>
      <point x="472" y="748" type="line" smooth="no"/>
      <point x="472" y="612" type="line" smooth="no"/>
      <point x="322" y="556" type="line" smooth="no"/>
      <point x="322" y="116" type="line" smooth="no"/>
      <point x="455" y="116" type="line" smooth="no"/>
      <point x="455" y="0" type="line" smooth="no"/>
    </contour>
  </outline>
</glyph>
<glyph name="circumflex" format="1">
  <advance width="593"/>
  <unicode hex="02c6"/>
  <outline>
    <contour>
      <point x="58" y="896" type="line" smooth="no"/>
      <point x="156" y="1171" type="line" smooth="no"/>
      <point x="431" y="1171" type="line" smooth="no"/>
      <point x="535" y="896" type="line" smooth="no"/>
      <point x="387" y="896" type="line" smooth="no"/>
      <point x="294" y="1126" type="line" smooth="no"/>
      <point x="201" y="896" type="line" smooth="no"/>
    </contour>
  </outline>
</glyph>
<glyph name="caron" format="1">
  <advance width="593"/>
  <unicode hex="02c7"/>
  <outline>
    <contour>
      <point x="145" y="1171" type="line" smooth="no"/>
      <point x="299" y="1017" type="line" smooth="no"/>
      <point x="451" y="1171" type="line" smooth="no"/>
      <point x="555" y="1171" type="line" smooth="no"/>
      <point x="396" y="912" type="line" smooth="no"/>
      <point x="200" y="912" type="line" smooth="no"/>
      <point x="38" y="1171" type="line" smooth="no"/>
    </contour>
  </outline>
</glyph>
<glyph name="ogonek" format="1">
  <advance width="587"/>
  <unicode hex="02db"/>
  <outline>
    <contour>
      <point x="326" y="-353" type="curve" smooth="yes"/>
      <point x="215" y="-353"/>
      <point x="137" y="-285"/>
      <point x="137" y="-176" type="curve" smooth="yes"/>
      <point x="137" y="-123"/>
      <point x="157" y="-65"/>
      <point x="197" y="0" type="curve" smooth="no"/>
      <point x="311" y="0" type="line" smooth="no"/>
      <point x="281" y="-41"/>
      <point x="266" y="-83"/>
      <point x="266" y="-126" type="curve" smooth="yes"/>
      <point x="266" y="-197"/>
      <point x="299" y="-233"/>
      <point x="364" y="-233" type="curve" smooth="yes"/>
      <point x="393" y="-233"/>
      <point x="422" y="-226"/>
      <point x="451" y="-213" type="curve" smooth="no"/>
      <point x="451" y="-316" type="line" smooth="no"/>
      <point x="400" y="-341"/>
      <point x="358" y="-353"/>
    </contour>
  </outline>
</glyph>
<glyph name="hungarumlaut" format="1">
  <advance width="587"/>
  <unicode hex="02dd"/>
  <outline>
    <contour>
      <point x="25" y="899" type="line" smooth="no"/>
      <point x="116" y="1171" type="line" smooth="no"/>
      <point x="306" y="1171" type="line" smooth="no"/>
      <point x="121" y="899" type="line" smooth="no"/>
    </contour>
    <contour>
      <point x="287" y="899" type="line" smooth="no"/>
      <point x="377" y="1171" type="line" smooth="no"/>
      <point x="567" y="1171" type="line" smooth="no"/>
      <point x="382" y="899" type="line" smooth="no"/>
    </contour>
  </outline>
</glyph>
<glyph name="uni030F" format="1">
  <advance width="587"/>
  <unicode hex="030f"/>
  <outline>
    <contour>
      <point x="443" y="899" type="line" smooth="no"/>
      <point x="258" y="1171" type="line" smooth="no"/>
      <point x="448" y="1171" type="line" smooth="no"/>
      <point x="538" y="899" type="line" smooth="no"/>
    </contour>
    <contour>
      <point x="181" y="899" type="line" smooth="no"/>
      <point x="-3" y="1171" type="line" smooth="no"/>
      <point x="187" y="1171" type="line" smooth="no"/>
      <point x="277" y="899" type="line" smooth="no"/>
    </contour>
  </outline>
</glyph>
<glyph name="uni0326" format="1">
  <advance width="554"/>
  <unicode hex="0326"/>
  <outline>
    <contour>
      <point x="151" y="-66" type="line" smooth="no"/>
      <point x="363" y="-66" type="line" smooth="no"/>
      <point x="363" y="-278" type="line" smooth="no"/>
      <point x="362" y="-437"/>
      <point x="299" y="-512"/>
      <point x="151" y="-515" type="curve" smooth="no"/>
      <point x="151" y="-427" type="line" smooth="no"/>
      <point x="229" y="-411"/>
      <point x="257" y="-373"/>
      <point x="257" y="-278" type="curve" smooth="no"/>
      <point x="151" y="-278" type="line" smooth="no"/>
    </contour>
  </outline>
</glyph>
<glyph name="pi" format="1">
  <advance width="1032"/>
  <unicode hex="03c0"/>
  <outline>
    <contour>
      <point x="773" y="223" type="curve" smooth="yes"/>
      <point x="773" y="136"/>
      <point x="791" y="94"/>
      <point x="864" y="94" type="curve" smooth="yes"/>
      <point x="881" y="94"/>
      <point x="903" y="99"/>
      <point x="932" y="109" type="curve" smooth="no"/>
      <point x="932" y="27" type="line" smooth="no"/>
      <point x="901" y="0"/>
      <point x="859" y="-13"/>
      <point x="808" y="-13" type="curve" smooth="yes"/>
      <point x="699" y="-13"/>
      <point x="644" y="53"/>
      <point x="644" y="184" type="curve" smooth="yes"/>
      <point x="644" y="278"/>
      <point x="657" y="462"/>
      <point x="682" y="735" type="curve" smooth="no"/>
      <point x="380" y="735" type="line" smooth="no"/>
      <point x="358" y="279" type="line" smooth="yes"/>
      <point x="349" y="112"/>
      <point x="304" y="0"/>
      <point x="140" y="0" type="curve" smooth="yes"/>
      <point x="68" y="0" type="line" smooth="no"/>
      <point x="68" y="76" type="line" smooth="no"/>
      <point x="158" y="76"/>
      <point x="213" y="157"/>
      <point x="232" y="319" type="curve" smooth="no"/>
      <point x="247" y="457"/>
      <point x="264" y="597"/>
      <point x="279" y="735" type="curve" smooth="no"/>
      <point x="221" y="735" type="line" smooth="yes"/>
      <point x="166" y="735"/>
      <point x="134" y="701"/>
      <point x="127" y="633" type="curve" smooth="no"/>
      <point x="51" y="633" type="line" smooth="no"/>
      <point x="51" y="747"/>
      <point x="84" y="822"/>
      <point x="149" y="858" type="curve" smooth="yes"/>
      <point x="172" y="871"/>
      <point x="201" y="878"/>
      <point x="234" y="877" type="curve" smooth="no"/>
      <point x="962" y="877" type="line" smooth="no"/>
      <point x="962" y="735" type="line" smooth="no"/>
      <point x="782" y="735" type="line" smooth="no"/>
      <point x="777" y="492" type="line" smooth="no"/>
      <point x="775" y="347" type="line" smooth="yes"/>
      <point x="774" y="296"/>
      <point x="773" y="255"/>
    </contour>
  </outline>
</glyph>
<glyph name="dagger" format="1">
  <advance width="918"/>
  <unicode hex="2020"/>
  <outline>
    <contour>
      <point x="416" y="-227" type="line" smooth="no"/>
      <point x="416" y="123"/>
      <point x="391" y="456"/>
      <point x="342" y="772" type="curve" smooth="no"/>
      <point x="416" y="1004" type="line" smooth="no"/>
      <point x="72" y="946" type="line" smooth="no"/>
      <point x="72" y="1122" type="line" smooth="no"/>
      <point x="416" y="1069" type="line" smooth="no"/>
      <point x="362" y="1556" type="line" smooth="no"/>
      <point x="559" y="1556" type="line" smooth="no"/>
      <point x="502" y="1069" type="line" smooth="no"/>
      <point x="846" y="1122" type="line" smooth="no"/>
      <point x="846" y="946" type="line" smooth="no"/>
      <point x="502" y="1004" type="line" smooth="no"/>
      <point x="580" y="772" type="line" smooth="no"/>
      <point x="528" y="460"/>
      <point x="502" y="127"/>
      <point x="502" y="-227" type="curve" smooth="no"/>
    </contour>
  </outline>
</glyph>
<glyph name="daggerdbl" format="1">
  <advance width="918"/>
  <unicode hex="2021"/>
  <outline>
    <contour>
      <point x="487" y="668" type="curve" smooth="no"/>
      <point x="502" y="554"/>
      <point x="533" y="483"/>
      <point x="580" y="455" type="curve" smooth="no"/>
      <point x="502" y="223" type="line" smooth="no"/>
      <point x="846" y="281" type="line" smooth="no"/>
      <point x="846" y="104" type="line" smooth="no"/>
      <point x="502" y="158" type="line" smooth="no"/>
      <point x="559" y="-227" type="line" smooth="no"/>
      <point x="362" y="-227" type="line" smooth="no"/>
      <point x="416" y="158" type="line" smooth="no"/>
      <point x="72" y="104" type="line" smooth="no"/>
      <point x="72" y="281" type="line" smooth="no"/>
      <point x="416" y="223" type="line" smooth="no"/>
      <point x="342" y="455" type="line" smooth="no"/>
      <point x="387" y="488"/>
      <point x="417" y="560"/>
      <point x="430" y="670" type="curve" smooth="no"/>
      <point x="416" y="785"/>
      <point x="387" y="853"/>
      <point x="342" y="874" type="curve" smooth="no"/>
      <point x="416" y="1106" type="line" smooth="no"/>
      <point x="72" y="1049" type="line" smooth="no"/>
      <point x="72" y="1225" type="line" smooth="no"/>
      <point x="416" y="1171" type="line" smooth="no"/>
      <point x="362" y="1556" type="line" smooth="no"/>
      <point x="559" y="1556" type="line" smooth="no"/>
      <point x="502" y="1171" type="line" smooth="no"/>
      <point x="846" y="1225" type="line" smooth="no"/>
      <point x="846" y="1049" type="line" smooth="no"/>
      <point x="502" y="1106" type="line" smooth="no"/>
      <point x="580" y="874" type="line" smooth="no"/>
      <point x="533" y="846"/>
      <point x="502" y="777"/>
    </contour>
  </outline>
</glyph>
<glyph name="ellipsis" format="1">
  <advance width="1242"/>
  <unicode hex="2026"/>
  <outline>
    <contour>
      <point x="1141" y="211" type="line" smooth="no"/>
      <point x="1141" y="0" type="line" smooth="no"/>
      <point x="914" y="0" type="line" smooth="no"/>
      <point x="914" y="211" type="line" smooth="no"/>
    </contour>
    <contour>
      <point x="727" y="211" type="line" smooth="no"/>
      <point x="727" y="0" type="line" smooth="no"/>
      <point x="500" y="0" type="line" smooth="no"/>
      <point x="500" y="211" type="line" smooth="no"/>
    </contour>
    <contour>
      <point x="313" y="211" type="line" smooth="no"/>
      <point x="313" y="0" type="line" smooth="no"/>
      <point x="86" y="0" type="line" smooth="no"/>
      <point x="86" y="211" type="line" smooth="no"/>
    </contour>
  </outline>
</glyph>
<glyph name="guilsinglleft" format="1">
  <advance width="682"/>
  <unicode hex="2039"/>
  <outline>
    <contour>
      <point x="133" y="586" type="line" smooth="no"/>
      <point x="446" y="942" type="line" smooth="no"/>
      <point x="549" y="942" type="line" smooth="no"/>
      <point x="342" y="553" type="line" smooth="no"/>
      <point x="549" y="164" type="line" smooth="no"/>
      <point x="446" y="164" type="line" smooth="no"/>
      <point x="133" y="520" type="line" smooth="no"/>
    </contour>
  </outline>
</glyph>
<glyph name="fraction" format="1">
  <advance width="793"/>
  <unicode hex="2044"/>
  <outline>
    <contour>
      <point x="563" y="1171" type="line" smooth="no"/>
      <point x="692" y="1171" type="line" smooth="no"/>
      <point x="258" y="-18" type="line" smooth="no"/>
      <point x="129" y="-18" type="line" smooth="no"/>
    </contour>
  </outline>
</glyph>
<glyph name="uni2074" format="1">
  <advance width="875"/>
  <unicode hex="2074"/>
  <outline>
    <contour>
      <point x="478" y="352" type="line" smooth="no"/>
      <point x="478" y="765" type="line" smooth="no"/>
      <point x="224" y="352" type="line" smooth="no"/>
    </contour>
    <contour>
      <point x="713" y="94" type="line" smooth="no"/>
      <point x="713" y="0" type="line" smooth="no"/>
      <point x="346" y="0" type="line" smooth="no"/>
      <point x="346" y="94" type="line" smooth="no"/>
      <point x="478" y="94" type="line" smooth="no"/>
      <point x="478" y="254" type="line" smooth="no"/>
      <point x="107" y="254" type="line" smooth="no"/>
      <point x="107" y="352" type="line" smooth="no"/>
      <point x="481" y="931" type="line" smooth="no"/>
      <point x="593" y="931" type="line" smooth="no"/>
      <point x="593" y="352" type="line" smooth="no"/>
      <point x="746" y="352" type="line" smooth="no"/>
      <point x="746" y="254" type="line" smooth="no"/>
      <point x="593" y="254" type="line" smooth="no"/>
      <point x="593" y="94" type="line" smooth="no"/>
    </contour>
  </outline>
</glyph>
<glyph name="Euro" format="1">
  <advance width="1093"/>
  <unicode hex="20ac"/>
  <outline>
    <contour>
      <point x="662" y="-18" type="curve" smooth="yes"/>
      <point x="376" y="-18"/>
      <point x="221" y="175"/>
      <point x="180" y="430" type="curve" smooth="no"/>
      <point x="30" y="430" type="line" smooth="no"/>
      <point x="30" y="544" type="line" smooth="no"/>
      <point x="169" y="544" type="line" smooth="no"/>
      <point x="169" y="575" type="line" smooth="yes"/>
      <point x="169" y="602"/>
      <point x="170" y="630"/>
      <point x="173" y="658" type="curve" smooth="no"/>
      <point x="30" y="658" type="line" smooth="no"/>
      <point x="30" y="771" type="line" smooth="no"/>
      <point x="192" y="771" type="line" smooth="no"/>
      <point x="236" y="956"/>
      <point x="329" y="1079"/>
      <point x="470" y="1140" type="curve" smooth="yes"/>
      <point x="518" y="1161"/>
      <point x="571" y="1171"/>
      <point x="630" y="1171" type="curve" smooth="yes"/>
      <point x="737" y="1171"/>
      <point x="826" y="1128"/>
      <point x="897" y="1042" type="curve" smooth="no"/>
      <point x="897" y="1153" type="line" smooth="no"/>
      <point x="1027" y="1153" type="line" smooth="no"/>
      <point x="1027" y="804" type="line" smooth="no"/>
      <point x="902" y="804" type="line" smooth="no"/>
      <point x="822" y="932"/>
      <point x="737" y="1010"/>
      <point x="648" y="1037" type="curve" smooth="no"/>
      <point x="545" y="1037"/>
      <point x="465" y="985"/>
      <point x="410" y="880" type="curve" smooth="yes"/>
      <point x="393" y="847"/>
      <point x="379" y="811"/>
      <point x="369" y="771" type="curve" smooth="no"/>
      <point x="618" y="771" type="line" smooth="no"/>
      <point x="618" y="658" type="line" smooth="no"/>
      <point x="349" y="658" type="line" smooth="no"/>
      <point x="347" y="633"/>
      <point x="346" y="607"/>
      <point x="346" y="580" type="curve" smooth="yes"/>
      <point x="346" y="544" type="line" smooth="no"/>
      <point x="618" y="544" type="line" smooth="no"/>
      <point x="618" y="430" type="line" smooth="no"/>
      <point x="357" y="430" type="line" smooth="no"/>
      <point x="432" y="264"/>
      <point x="531" y="159"/>
      <point x="654" y="116" type="curve" smooth="no"/>
      <point x="803" y="116"/>
      <point x="893" y="229"/>
      <point x="923" y="378" type="curve" smooth="no"/>
      <point x="1058" y="307" type="line" smooth="no"/>
      <point x="1019" y="187"/>
      <point x="958" y="100"/>
      <point x="874" y="46" type="curve" smooth="yes"/>
      <point x="807" y="3"/>
      <point x="737" y="-18"/>
    </contour>
  </outline>
</glyph>
<glyph name="product" format="1">
  <advance width="1299"/>
  <unicode hex="220f"/>
  <outline>
    <contour>
      <point x="215" y="971" type="line" smooth="no"/>
      <point x="212" y="1051"/>
      <point x="167" y="1080"/>
      <point x="85" y="1077" type="curve" smooth="no"/>
      <point x="61" y="1077" type="line" smooth="no"/>
      <point x="61" y="1153" type="line" smooth="no"/>
      <point x="1232" y="1153" type="line" smooth="no"/>
      <point x="1232" y="1077" type="line" smooth="no"/>
      <point x="1207" y="1077" type="line" smooth="no"/>
      <point x="1115" y="1078"/>
      <point x="1079" y="1047"/>
      <point x="1079" y="964" type="curve" smooth="yes"/>
      <point x="1079" y="200" type="line" smooth="no"/>
      <point x="1082" y="119"/>
      <point x="1126" y="94"/>
      <point x="1207" y="94" type="curve" smooth="yes"/>
      <point x="1232" y="94" type="line" smooth="no"/>
      <point x="1232" y="18" type="line" smooth="no"/>
      <point x="752" y="18" type="line" smooth="no"/>
      <point x="752" y="94" type="line" smooth="no"/>
      <point x="777" y="94" type="line" smooth="yes"/>
      <point x="869" y="94"/>
      <point x="906" y="125"/>
      <point x="906" y="208" type="curve" smooth="yes"/>
      <point x="906" y="1064" type="line" smooth="no"/>
      <point x="386" y="1064" type="line" smooth="no"/>
      <point x="386" y="208" type="line" smooth="yes"/>
      <point x="386" y="121"/>
      <point x="431" y="94"/>
      <point x="516" y="94" type="curve" smooth="yes"/>
      <point x="541" y="94" type="line" smooth="no"/>
      <point x="541" y="18" type="line" smooth="no"/>
      <point x="61" y="18" type="line" smooth="no"/>
      <point x="61" y="94" type="line" smooth="no"/>
      <point x="85" y="94" type="line" smooth="yes"/>
      <point x="178" y="94"/>
      <point x="215" y="124"/>
      <point x="215" y="208" type="curve" smooth="yes"/>
    </contour>
  </outline>
</glyph>
<glyph name="minus" format="1">
  <advance width="931"/>
  <unicode hex="2212"/>
  <outline>
    <contour>
      <point x="876" y="842" type="line" smooth="no"/>
      <point x="876" y="724" type="line" smooth="no"/>
      <point x="56" y="724" type="line" smooth="no"/>
      <point x="56" y="842" type="line" smooth="no"/>
    </contour>
  </outline>
</glyph>
<glyph name="radical" format="1">
  <advance width="686"/>
  <unicode hex="221a"/>
  <outline>
    <contour>
      <point x="415" y="0" type="line" smooth="no"/>
      <point x="327" y="0" type="line" smooth="no"/>
      <point x="145" y="513" type="line" smooth="no"/>
      <point x="39" y="513" type="line" smooth="no"/>
      <point x="39" y="589" type="line" smooth="no"/>
      <point x="229" y="589" type="line" smooth="no"/>
      <point x="380" y="160" type="line" smooth="no"/>
      <point x="681" y="1153" type="line" smooth="no"/>
      <point x="767" y="1153" type="line" smooth="no"/>
    </contour>
  </outline>
</glyph>
<glyph name="notequal" format="1">
  <advance width="1145"/>
  <unicode hex="2260"/>
  <outline>
    <contour>
      <point x="580" y="993" type="line" smooth="no"/>
      <point x="637" y="1212" type="line" smooth="no"/>
      <point x="756" y="1212" type="line" smooth="no"/>
      <point x="698" y="993" type="line" smooth="no"/>
      <point x="1012" y="993" type="line" smooth="no"/>
      <point x="1012" y="872" type="line" smooth="no"/>
      <point x="668" y="872" type="line" smooth="no"/>
      <point x="594" y="590" type="line" smooth="no"/>
      <point x="1012" y="590" type="line" smooth="no"/>
      <point x="1012" y="469" type="line" smooth="no"/>
      <point x="563" y="469" type="line" smooth="no"/>
      <point x="508" y="250" type="line" smooth="no"/>
      <point x="387" y="250" type="line" smooth="no"/>
      <point x="444" y="469" type="line" smooth="no"/>
      <point x="133" y="469" type="line" smooth="no"/>
      <point x="133" y="590" type="line" smooth="no"/>
      <point x="475" y="590" type="line" smooth="no"/>
      <point x="549" y="872" type="line" smooth="no"/>
      <point x="133" y="872" type="line" smooth="no"/>
      <point x="133" y="993" type="line" smooth="no"/>
    </contour>
  </outline>
</glyph>
<glyph name="lessequal" format="1">
  <advance width="1145"/>
  <unicode hex="2264"/>
  <outline>
    <contour>
      <point x="1012" y="0" type="line" smooth="no"/>
      <point x="133" y="0" type="line" smooth="no"/>
      <point x="133" y="121" type="line" smooth="no"/>
      <point x="1012" y="121" type="line" smooth="no"/>
    </contour>
    <contour>
      <point x="133" y="696" type="line" smooth="no"/>
      <point x="133" y="768" type="line" smooth="no"/>
      <point x="1012" y="1241" type="line" smooth="no"/>
      <point x="1012" y="1104" type="line" smooth="no"/>
      <point x="324" y="731" type="line" smooth="no"/>
      <point x="1012" y="362" type="line" smooth="no"/>
      <point x="1012" y="225" type="line" smooth="no"/>
    </contour>
  </outline>
</glyph>
<glyph name="greaterequal" format="1">
  <advance width="1145"/>
  <unicode hex="2265"/>
  <outline>
    <contour>
      <point x="1012" y="0" type="line" smooth="no"/>
      <point x="133" y="0" type="line" smooth="no"/>
      <point x="133" y="121" type="line" smooth="no"/>
      <point x="1012" y="121" type="line" smooth="no"/>
    </contour>
    <contour>
      <point x="133" y="225" type="line" smooth="no"/>
      <point x="133" y="362" type="line" smooth="no"/>
      <point x="821" y="731" type="line" smooth="no"/>
      <point x="133" y="1104" type="line" smooth="no"/>
      <point x="133" y="1241" type="line" smooth="no"/>
      <point x="1012" y="768" type="line" smooth="no"/>
      <point x="1012" y="696" type="line" smooth="no"/>
    </contour>
  </outline>
</glyph>
<glyph name="lozenge" format="1">
  <advance width="1122"/>
  <unicode hex="25ca"/>
  <outline>
    <contour>
      <point x="563" y="1309" type="line" smooth="no"/>
      <point x="209" y="731" type="line" smooth="no"/>
      <point x="563" y="147" type="line" smooth="no"/>
      <point x="913" y="731" type="line" smooth="no"/>
    </contour>
    <contour>
      <point x="602" y="0" type="line" smooth="no"/>
      <point x="520" y="0" type="line" smooth="no"/>
      <point x="61" y="729" type="line" smooth="no"/>
      <point x="520" y="1462" type="line" smooth="no"/>
      <point x="602" y="1462" type="line" smooth="no"/>
      <point x="1061" y="731" type="line" smooth="no"/>
    </contour>
  </outline>
</glyph>
<glyph name="ff" format="1">
  <advance width="1092"/>
  <unicode hex="fb00"/>
  <outline>
    <contour>
      <point x="722" y="943" type="line" smooth="yes"/>
      <point x="722" y="1084"/>
      <point x="805" y="1171"/>
      <point x="953" y="1171" type="curve" smooth="yes"/>
      <point x="1081" y="1171"/>
      <point x="1153" y="1091"/>
      <point x="1153" y="963" type="curve" smooth="no"/>
      <point x="1023" y="963" type="line" smooth="no"/>
      <point x="1023" y="1017"/>
      <point x="1001" y="1053"/>
      <point x="953" y="1053" type="curve" smooth="yes"/>
      <point x="900" y="1053"/>
      <point x="873" y="1013"/>
      <point x="873" y="934" type="curve" smooth="yes"/>
      <point x="873" y="805" type="line" smooth="no"/>
      <point x="1051" y="805" type="line" smooth="no"/>
      <point x="1051" y="689" type="line" smooth="no"/>
      <point x="873" y="689" type="line" smooth="no"/>
      <point x="873" y="116" type="line" smooth="no"/>
      <point x="1032" y="116" type="line" smooth="no"/>
      <point x="1032" y="0" type="line" smooth="no"/>
      <point x="598" y="0" type="line" smooth="no"/>
      <point x="598" y="116" type="line" smooth="no"/>
      <point x="722" y="116" type="line" smooth="no"/>
      <point x="722" y="689" type="line" smooth="no"/>
      <point x="336" y="689" type="line" smooth="no"/>
      <point x="336" y="116" type="line" smooth="no"/>
      <point x="495" y="116" type="line" smooth="no"/>
      <point x="495" y="0" type="line" smooth="no"/>
      <point x="61" y="0" type="line" smooth="no"/>
      <point x="61" y="116" type="line" smooth="no"/>
      <point x="185" y="116" type="line" smooth="no"/>
      <point x="185" y="689" type="line" smooth="no"/>
      <point x="56" y="689" type="line" smooth="no"/>
      <point x="56" y="805" type="line" smooth="no"/>
      <point x="185" y="805" type="line" smooth="no"/>
      <point x="185" y="943" type="line" smooth="yes"/>
      <point x="185" y="1084"/>
      <point x="268" y="1171"/>
      <point x="416" y="1171" type="curve" smooth="yes"/>
      <point x="544" y="1171"/>
      <point x="616" y="1091"/>
      <point x="616" y="963" type="curve" smooth="no"/>
      <point x="486" y="963" type="line" smooth="no"/>
      <point x="486" y="1017"/>
      <point x="464" y="1053"/>
      <point x="416" y="1053" type="curve" smooth="yes"/>
      <point x="363" y="1053"/>
      <point x="336" y="1013"/>
      <point x="336" y="934" type="curve" smooth="yes"/>
      <point x="336" y="805" type="line" smooth="no"/>
      <point x="722" y="805" type="line" smooth="no"/>
    </contour>
  </outline>
</glyph>
<glyph name="uniFB01" format="1">
  <advance width="1029"/>
  <unicode hex="fb01"/>
  <outline>
    <contour>
      <point x="795" y="979" type="curve" smooth="yes"/>
      <point x="735" y="979"/>
      <point x="694" y="1010"/>
      <point x="694" y="1066" type="curve" smooth="yes"/>
      <point x="694" y="1120"/>
      <point x="732" y="1151"/>
      <point x="795" y="1152" type="curve" smooth="yes"/>
      <point x="837" y="1153"/>
      <point x="877" y="1110"/>
      <point x="877" y="1066" type="curve" smooth="yes"/>
      <point x="877" y="1021"/>
      <point x="837" y="979"/>
    </contour>
    <contour>
      <point x="486" y="963" type="line" smooth="no"/>
      <point x="486" y="1017"/>
      <point x="464" y="1053"/>
      <point x="416" y="1053" type="curve" smooth="yes"/>
      <point x="363" y="1053"/>
      <point x="336" y="1013"/>
      <point x="336" y="934" type="curve" smooth="yes"/>
      <point x="336" y="805" type="line" smooth="no"/>
      <point x="861" y="805" type="line" smooth="no"/>
      <point x="861" y="116" type="line" smooth="no"/>
      <point x="997" y="116" type="line" smooth="no"/>
      <point x="997" y="0" type="line" smooth="no"/>
      <point x="577" y="0" type="line" smooth="no"/>
      <point x="577" y="116" type="line" smooth="no"/>
      <point x="712" y="116" type="line" smooth="no"/>
      <point x="712" y="689" type="line" smooth="no"/>
      <point x="336" y="689" type="line" smooth="no"/>
      <point x="336" y="116" type="line" smooth="no"/>
      <point x="498" y="116" type="line" smooth="no"/>
      <point x="498" y="0" type="line" smooth="no"/>
      <point x="65" y="0" type="line" smooth="no"/>
      <point x="65" y="116" type="line" smooth="no"/>
      <point x="185" y="116" type="line" smooth="no"/>
      <point x="185" y="689" type="line" smooth="no"/>
      <point x="56" y="689" type="line" smooth="no"/>
      <point x="56" y="805" type="line" smooth="no"/>
      <point x="185" y="805" type="line" smooth="no"/>
      <point x="185" y="943" type="line" smooth="yes"/>
      <point x="185" y="1054"/>
      <point x="231" y="1125"/>
      <point x="323" y="1156" type="curve" smooth="yes"/>
      <point x="412" y="1185"/>
      <point x="505" y="1171"/>
      <point x="555" y="1124" type="curve" smooth="no"/>
      <point x="596" y="1088"/>
      <point x="616" y="1034"/>
      <point x="616" y="963" type="curve" smooth="no"/>
    </contour>
  </outline>
</glyph>
